<svg xmlns="http://www.w3.org/2000/svg" viewBox="0 0 9 9" class="pixelicon-avocado">
	<rect fill="#73E030" x="3" y="7" width="3" height="1"/>
	<rect fill="#73E030" x="3" y="0" width="3" height="1"/>
	<rect fill="#73E030" x="2" y="2" width="1" height="1"/>
	<rect fill="#73E030" x="2" y="1" width="1" height="1"/>
	<rect fill="#73E030" x="1" y="3" width="1" height="3"/>
	<rect fill="#73E030" x="6" y="6" width="1" height="1"/>
	<rect fill="#73E030" x="2" y="6" width="1" height="1"/>
	<rect fill="#73E030" x="6" y="2" width="1" height="1"/>
	<rect fill="#73E030" x="7" y="3" width="1" height="3"/>
	<rect fill="#73E030" x="6" y="1" width="1" height="1"/>
	<rect fill="#CDFF42" x="3" y="6" width="3" height="1"/>
	<rect fill="#CDFF42" x="2" y="3" width="1" height="3"/>
	<rect fill="#CDFF42" x="6" y="3" width="1" height="3"/>
	<rect fill="#CDFF42" x="3" y="1" width="3" height="2"/>
	<rect fill="#D38100" x="3" y="3" width="2" height="2"/>
	<polygon fill="#9C5F00" points="5,3 5,5 3,5 3,6 6,6 6,3"/>
</svg>