<svg xmlns="http://www.w3.org/2000/svg" viewBox="0 0 9 9" class="pixelicon-bubble-tea">
	<rect fill="#EBEAF7" x="2" y="3" width="2" height="1"/>
	<rect fill="#EBEAF7" x="5" y="3" width="2" height="1"/>
	<rect fill="#D38100" x="1" y="2" width="7" height="1"/>
	<polygon fill="#FFE4C2" points="3,5 4,5 4,4 2,4 2,6 3,6"/>
	<polygon fill="#FFE4C2" points="5,4 5,5 6,5 6,6 7,6 7,4"/>
	<rect fill="#FFE4C2" x="4" y="5" width="1" height="1"/>
	<rect fill="#FFE4C2" x="5" y="6" width="1" height="1"/>
	<rect fill="#FFE4C2" x="4" y="7" width="1" height="1"/>
	<rect fill="#343341" x="5" y="5" width="1" height="1"/>
	<rect fill="#343341" x="2" y="6" width="1" height="1"/>
	<rect fill="#343341" x="4" y="6" width="1" height="1"/>
	<rect fill="#343341" x="6" y="6" width="1" height="1"/>
	<rect fill="#343341" x="3" y="7" width="1" height="1"/>
	<rect fill="#343341" x="5" y="7" width="1" height="1"/>
	<rect fill="#6F6D81" x="5" y="0" width="1" height="2"/>
	<rect fill="#6F6D81" x="4" y="3" width="1" height="2"/>
	<rect fill="#6F6D81" x="3" y="5" width="1" height="2"/>
</svg>