<svg xmlns="http://www.w3.org/2000/svg" viewBox="0 0 9 9" class="pixelicon-capybara">
	<path fill="#D38100" d="M7,5V4H6V2H4V1H3v3H2v1H1v1h1v2h1V6h1v2h1V7h1V6h1v1H6v1h2V5H7z M4,3h1v1H4V3z"/>
	<rect fill="#D38100" x="6" y="1" width="1" height="1"/>
	<polygon fill="#B67100" points="2,2 2,3 1,3 1,5 2,5 2,4 3,4 3,2"/>
	<rect fill="#9C5F00" x="3" y="6" width="1" height="2"/>
	<rect fill="#9C5F00" x="6" y="6" width="1" height="1"/>
	<rect fill="#9C5F00" x="5" y="7" width="1" height="1"/>
	<rect fill="#343341" x="4" y="3" width="1" height="1"/>
	<rect fill="#343341" x="1" y="2" width="1" height="1"/>
</svg>