<svg xmlns="http://www.w3.org/2000/svg" viewBox="0 0 9 9" class="pixelicon-car">
	<polygon fill="#89CDFF" points="2,2 2,3 1,3 1,4 8,4 8,2 "/>
	<rect fill="#343341" x="2" y="5" width="1" height="1"/>
	<rect fill="#343341" x="6" y="5" width="1" height="1"/>
	<rect fill="#343341" x="1" y="6" width="1" height="1"/>
	<rect fill="#FFFFFF" x="2" y="6" width="1" height="1"/>
	<rect fill="#343341" x="3" y="6" width="1" height="1"/>
	<rect fill="#343341" x="2" y="7" width="1" height="1"/>
	<rect fill="#343341" x="5" y="6" width="1" height="1"/>
	<rect fill="#FFFFFF" x="6" y="6" width="1" height="1"/>
	<rect fill="#343341" x="7" y="6" width="1" height="1"/>
	<rect fill="#343341" x="6" y="7" width="1" height="1"/>
	<rect fill="#4435FF" x="2" y="1" width="6" height="1"/>
	<polygon fill="#4435FF" points="0,4 0,7 1,7 1,6 2,6 2,5 3,5 3,6 4,6 4,7 5,7 5,6 6,6 6,5 7,5 7,6 8,6 8,7 9,7 9,4 "/>
</svg>