<svg xmlns="http://www.w3.org/2000/svg" viewBox="0 0 9 9" class="pixelicon-sit">
	<polygon fill="#EBEAF7" points="4,3 4,2 3,2 3,3 2,3 2,4 5,4 5,3"/>
	<polygon fill="#EBEAF7" points="4,6 4,5 2,5 2,8 3,8 3,7 4,7 4,8 5,8 5,6"/>
	<polygon fill="#FFB100" points="5,0 5,1 3,1 3,2 5,2 5,4 6,4 6,0"/>
	<rect fill="#FFB100" x="1" y="3" width="1" height="1"/>
	<polygon fill="#FFB100" points="4,5 4,6 5,6 5,7 6,7 6,5"/>
	<polygon fill="#D38100" points="3,1 2,1 2,0 1,0 1,3 2,3 2,2 3,2"/>
	<polygon fill="#D38100" points="6,6 6,7 5,7 5,8 7,8 7,6"/>
	<rect fill="#D38100" x="7" y="4" width="1" height="2"/>
	<rect fill="#4435FF" x="2" y="4" width="1" height="1"/>
	<rect fill="#4435FF" x="4" y="4" width="2" height="1"/>
	<rect fill="#FFE800" x="3" y="4" width="1" height="1"/>
	<rect fill="#343341" x="2" y="2" width="1" height="1"/>
	<rect fill="#343341" x="4" y="2" width="1" height="1"/>
</svg>