<svg xmlns="http://www.w3.org/2000/svg" viewBox="0 0 9 9" class="pixelicon-cat-calico">
	<path fill="#EBEAF7" d="M7,5v1H6V4H5V3H4v1H3v2H2V5H1v2h1V8h5V7h1V5H7z M5,7H4V6h1V7z"/>
	<rect fill="#FFB100" x="1" y="1" width="1" height="1"/>
	<polygon fill="#FFB100" points="3,3 3,2 2,2 2,3 1,3 1,5 3,5 3,4 4,4 4,3"/>
	<rect fill="#D38100" x="7" y="1" width="1" height="1"/>
	<polygon fill="#D38100" points="7,2 6,2 6,3 5,3 5,4 6,4 6,5 8,5 8,3 7,3"/>
	<rect fill="#9C5F00" x="1" y="2" width="1" height="1"/>
	<rect fill="#9C5F00" x="7" y="2" width="1" height="1"/>
	<rect fill="#343341" x="2" y="5" width="1" height="1"/>
	<rect fill="#343341" x="6" y="5" width="1" height="1"/>
	<rect fill="#FFAEB0" x="4" y="6" width="1" height="1"/>
</svg>