<svg xmlns="http://www.w3.org/2000/svg" viewBox="0 0 9 9" class="pixelicon-cat-grey">
	<rect fill="#A1A0B4" x="1" y="1" width="1" height="1"/>
	<rect fill="#A1A0B4" x="7" y="1" width="1" height="1"/>
	<polygon fill="#A1A0B4" points="3,2 2,2 2,4 1,4 1,7 2,7 2,5 4,5 4,4 3,4"/>
	<rect fill="#A1A0B4" x="4" y="3" width="1" height="1"/>
	<polygon fill="#A1A0B4" points="6,2 6,4 5,4 5,5 7,5 7,7 8,7 8,4 7,4 7,2"/>
	<rect fill="#6F6D81" x="1" y="2" width="1" height="2"/>
	<rect fill="#6F6D81" x="3" y="3" width="1" height="1"/>
	<rect fill="#6F6D81" x="5" y="3" width="1" height="1"/>
	<rect fill="#6F6D81" x="7" y="2" width="1" height="2"/>
	<rect fill="#343341" x="2" y="5" width="1" height="1"/>
	<rect fill="#343341" x="6" y="5" width="1" height="1"/>
	<path fill="#EBEAF7" d="M6,6V5H5V4H4v1H3v1H2v2h5V6H6z M5,7H4V6h1V7z"/>
	<rect fill="#FFAEB0" x="4" y="6" width="1" height="1"/>
</svg>