<svg xmlns="http://www.w3.org/2000/svg" viewBox="0 0 9 9" class="pixelicon-cat-black">
	<rect fill="#343341" x="1" y="1" width="1" height="1"/>
	<rect fill="#343341" x="7" y="1" width="1" height="1"/>
	<path fill="#343341" d="M7,3V2H6v1H3V2H2v1H1v4h1v1h5V7h1V3H7z M3,6H2V5h1V6z M5,7H4V6h1V7z M7,6H6V5h1V6z"/>
	<rect fill="#6F6D81" x="1" y="2" width="1" height="1"/>
	<rect fill="#6F6D81" x="7" y="2" width="1" height="1"/>
	<rect fill="#FFFBD4" x="2" y="5" width="1" height="1"/>
	<rect fill="#FFFBD4" x="6" y="5" width="1" height="1"/>
	<rect fill="#FFAEB0" x="4" y="6" width="1" height="1"/>
</svg>