<svg xmlns="http://www.w3.org/2000/svg" viewBox="0 0 9 9" class="pixelicon-pencil">
	<polygon fill="#EBEAF7" points="3,5 3,4 2,4 2,5 1,5 1,6 4,6 4,5"/>
	<polygon fill="#EBEAF7" points="6,6 6,4 5,4 5,7 7,7 7,8 8,8 8,6"/>
	<rect fill="#EBEAF7" x="2" y="7" width="1" height="1"/>
	<rect fill="#EBEAF7" x="4" y="7" width="1" height="1"/>
	<polygon fill="#FFB100" points="4,2 4,3 2,3 2,4 4,4 4,6 5,6 5,2"/>
	<rect fill="#FFB100" x="0" y="5" width="1" height="1"/>
	<polygon fill="#D38100" points="2,3 1,3 1,2 0,2 0,5 1,5 1,4 2,4"/>
	<rect fill="#D38100" x="2" y="6" width="3" height="1"/>
	<polygon fill="#D38100" points="7,5 7,4 6,4 6,6 8,6 8,5"/>
	<rect fill="#D38100" x="8" y="3" width="1" height="2"/>
	<rect fill="#343341" x="1" y="4" width="1" height="1"/>
	<rect fill="#343341" x="3" y="4" width="1" height="1"/>
</svg>