<svg xmlns="http://www.w3.org/2000/svg" viewBox="0 0 9 9" class="pixelicon-chansey">
	<path fill="#FFD6D7" d="M3,0V1H2V3H1V6H2V7H7V6H8V3H7V1H6V0z M3,6V4H4V3H5V4H6V6z"/>
	<rect fill="#FFAEB0" x="0" y="2" width="2" height="1"/>
	<rect fill="#FFAEB0" x="7" y="2" width="2" height="1"/>
	<rect fill="#FFAEB0" x="3" y="5" width="3" height="1"/>
	<rect fill="#FFAEB0" x="3" y="7" width="1" height="1"/>
	<rect fill="#FFAEB0" x="5" y="7" width="1" height="1"/>
	<rect fill="#343341" x="3" y="1" width="1" height="1"/>
	<rect fill="#343341" x="5" y="1" width="1" height="1"/>
	<path fill="#FFFBD4" d="M6,5V4H5V3H4V4H3V5z"/>
</svg>