<svg xmlns="http://www.w3.org/2000/svg" viewBox="0 0 9 9" class="pixelicon-charmander">
	<polygon fill="#FFB100" points="6,6 6,2 5,2 5,3 4,3 4,2 5,2 5,1 2,1 2,2 3,2 3,3 2,3 2,2 1,2 1,4 5,4 5,5 4,5 4,6 5,6 5,8 6,8 6,7 7,7 7,6"/>
	<rect fill="#FFB100" x="1" y="5" width="1" height="1"/>
	<rect fill="#FFB100" x="7" y="5" width="1" height="1"/>
	<rect fill="#FFB100" x="2" y="7" width="1" height="1"/>
	<polygon fill="#FFE800" points="5,5 5,4 2,4 2,7 5,7 5,6 4,6 4,5"/>
	<rect fill="#FFE800" x="8" y="4" width="1" height="1"/>
	<rect fill="#F92F3C" x="8" y="3" width="1" height="1"/>
	<rect fill="#343341" x="2" y="2" width="1" height="1"/>
	<rect fill="#343341" x="4" y="2" width="1" height="1"/>
</svg>