<svg xmlns="http://www.w3.org/2000/svg" viewBox="0 0 9 9" class="pixelicon-christmas-tree">
	<rect fill="#D38100" x="4" y="7" width="1" height="1"/>
	<polygon fill="#00AF3E" points="7,5 7,4 6,4 6,3 5,3 5,4 4,4 4,3 3,3 3,4 2,4 2,5 3,5 3,6 4,6 4,7 7,7 7,6 5,6 5,5"/>
	<rect fill="#00AF3E" x="2" y="6" width="1" height="1"/>
	<polygon fill="#FFE800" points="6,1 5,1 5,0 4,0 4,1 3,1 3,2 4,2 4,3 5,3 5,2 6,2"/>
	<rect fill="#F92F3C" x="4" y="3" width="1" height="1"/>
	<rect fill="#F92F3C" x="5" y="5" width="1" height="1"/>
	<rect fill="#F92F3C" x="3" y="6" width="1" height="1"/>
</svg>