<svg xmlns="http://www.w3.org/2000/svg" viewBox="0 0 9 9" class="pixelicon-control-panel">
	<rect fill="#FFFFFF" x="4" y="5" width="1" height="1"/>
	<rect fill="#FFFFFF" x="2" y="2" width="1" height="1"/>
	<rect fill="#FFFFFF" x="6" y="3" width="1" height="1"/>
	<polygon fill="#343341" points="4,5 5,5 5,2 4,2"/>
	<rect fill="#343341" x="4" y="6" width="1" height="1"/>
	<polygon fill="#343341" points="2,7 3,7 3,3 2,3"/>
	<rect fill="#343341" x="6" y="2" width="1" height="1"/>
	<polygon fill="#343341" points="6,7 7,7 7,4 6,4"/>
	<path fill="#D0EAFF" d="M7,1H1v7h7V1H7z M2,7V2h1v5H2z M4,7V2h1v5H4z M7,3v4H6V2h1V3z"/>
</svg>