<svg xmlns="http://www.w3.org/2000/svg" viewBox="0 0 9 9" class="pixelicon-cookie">
	<path fill="#FFB100" d="M7,3V2H6v1H5V2h1V1H3v1H2v1h1v1H2V3H1v3h1v1h1V6h1v1H3v1h3V7H5V6h1v1h1V6h1V3H7z M4,5V4h1v1H4z M7,5H6V4h1V5z"/>
	<rect fill="#B67100" x="5" y="2" width="1" height="1"/>
	<rect fill="#B67100" x="3" y="6" width="1" height="1"/>
	<rect fill="#9C5F00" x="2" y="3" width="1" height="1"/>
	<rect fill="#9C5F00" x="4" y="4" width="1" height="1"/>
	<rect fill="#9C5F00" x="6" y="4" width="1" height="1"/>
	<rect fill="#9C5F00" x="5" y="6" width="1" height="1"/>
</svg>