<svg xmlns="http://www.w3.org/2000/svg" viewBox="0 0 9 9" class="pixelicon-copy">
	<rect fill="#D0EAFF" x="6" y="5" width="1" height="1"/>
	<rect fill="#D0EAFF" x="6" y="6" width="1" height="1"/>
	<rect fill="#D0EAFF" x="3" y="5" width="1" height="1"/>
	<rect fill="#D0EAFF" x="3" y="7" width="1" height="1"/>
	<rect fill="#D0EAFF" x="6" y="7" width="1" height="1"/>
	<path fill="#D0EAFF" d="M6,7H4V6h2V7h1V3H3v5h3V7z M4,4h2v1H4V4z"/>
	<rect fill="#6F6D81" x="4" y="4" width="2" height="1"/>
	<rect fill="#6F6D81" x="4" y="6" width="2" height="1"/>
	<polygon fill="#89CDFF" points="2,1 2,6 3,6 3,3 6,3 6,1"/>
	<rect fill="#89CDFF" x="6" y="7" width="1" height="1"/>
</svg>