<svg xmlns="http://www.w3.org/2000/svg" viewBox="0 0 9 9" class="pixelicon-cow">
	<polygon fill="#FFAEB0" points="1,5 1,6 4,6 4,5"/>
	<polygon fill="#EBEAF7" points="6,4 6,5 5,5 5,6 2,6 2,8 3,8 3,7 4,7 4,8 5,8 5,7 6,7 6,6 7,6 7,5 8,5 8,4"/>
	<rect fill="#EBEAF7" x="8" y="5" width="1" height="1"/>
	<rect fill="#EBEAF7" x="7" y="7" width="1" height="1"/>
	<polygon fill="#EBEAF7" points="4,5 4,3 5,3 5,2 3,2 3,4 2,4 2,5"/>
	<polygon fill="#343341" points="7,5 7,6 6,6 6,7 8,7 8,5"/>
	<polygon fill="#343341" points="6,4 4,4 4,6 5,6 5,5 6,5"/>
	<polygon fill="#343341" points="0,2 0,3 1,3 1,5 2,5 2,4 3,4 3,2"/>
	<rect fill="#D38100" x="1" y="1" width="1" height="1"/>
	<rect fill="#D38100" x="3" y="1" width="1" height="1"/>
</svg>