<svg xmlns="http://www.w3.org/2000/svg" viewBox="0 0 9 9" class="pixelicon-dog-beagle">
	<rect fill="#9C5F00" x="2" y="2" width="1" height="1"/>
	<rect fill="#9C5F00" x="1" y="3" width="1" height="1"/>
	<rect fill="#9C5F00" x="0" y="4" width="1" height="2"/>
	<rect fill="#9C5F00" x="6" y="2" width="1" height="1"/>
	<rect fill="#9C5F00" x="7" y="3" width="1" height="1"/>
	<rect fill="#9C5F00" x="8" y="4" width="1" height="2"/>
	<polygon fill="#D38100" points="7,4 7,3 2,3 2,4 1,4 1,7 3,7 3,6 4,6 4,5 5,5 5,6 6,6 6,7 8,7 8,4"/>
	<rect fill="#EBEAF7" x="4" y="5" width="1" height="1"/>
	<polygon fill="#EBEAF7" points="5,6 5,7 4,7 4,6 3,6 3,8 6,8 6,6"/>
	<rect fill="#343341" x="2" y="5" width="1" height="1"/>
	<rect fill="#343341" x="6" y="5" width="1" height="1"/>
	<rect fill="#343341" x="4" y="6" width="1" height="1"/>
</svg>