<svg xmlns="http://www.w3.org/2000/svg" viewBox="0 0 9 9" class="pixelicon-doughnut">
	<path fill="#9C5F00" d="M7,4V3H8V2H6V0H5V1H4V0H2V2H0V3H1V4H0V5H1V6H2V7H4V6H5V7H6V6H7V5H6V4z M2,5H3V6H2z M3,3H5V5H3z M4,1V2H3V1z"/>
	<rect fill="#9C5F00" x="7" y="4" width="1" height="1"/>
	<rect fill="#89CDFF" x="4" y="0" width="1" height="1"/>
	<rect fill="#89CDFF" x="1" y="1" width="1" height="1"/>
	<rect fill="#89CDFF" x="7" y="3" width="1" height="1"/>
	<rect fill="#89CDFF" x="2" y="5" width="1" height="1"/>
	<rect fill="#89CDFF" x="4" y="6" width="1" height="1"/>
	<rect fill="#F68285" x="3" y="1" width="1" height="1"/>
	<rect fill="#F68285" x="6" y="1" width="1" height="1"/>
	<rect fill="#F68285" x="0" y="3" width="1" height="1"/>
	<rect fill="#F68285" x="6" y="4" width="1" height="1"/>
	<rect fill="#FFB100" x="3" y="3" width="2" height="1"/>
	<rect fill="#FFB100" x="0" y="5" width="1" height="1"/>
	<rect fill="#FFB100" x="7" y="5" width="1" height="1"/>
	<rect fill="#FFB100" x="1" y="6" width="1" height="1"/>
	<rect fill="#FFB100" x="6" y="6" width="1" height="1"/>
	<rect fill="#FFB100" x="2" y="7" width="4" height="1"/>
</svg>