<svg xmlns="http://www.w3.org/2000/svg" viewBox="0 0 9 9" class="pixelicon-earth">
	<path fill="#89CDFF" d="M3,4H2V3H1c0,0.9,0,2.1,0,3h1v1h1V6h1V5H3V4z"/>
	<rect fill="#89CDFF" x="5" y="1" width="1" height="1"/>
	<path fill="#89CDFF" d="M7,3V2H6v1H5v1H4v1h1v1h1v1h1c0-0.9,0-2.1,0-3h1V3H7z"/>
	<rect fill="#89CDFF" x="5" y="7" width="1" height="1"/>
	<path fill="#00812E" d="M5,1C4.5,1,3.5,1,3,1v1H2c0,0.5,0,1.5,0,2h1v1h1V4h1V3h1V2H5V1z"/>
	<path fill="#00812E" d="M3,6c0,0.5,0,1.5,0,2c0.5,0,1.5,0,2,0V7h1V6H5V5H4v1H3z"/>
	<path fill="#00812E" d="M7,4c0,0.5,0,1.5,0,2h1c0-0.5,0-1.5,0-2H7z"/>
</svg>