<svg xmlns="http://www.w3.org/2000/svg" viewBox="0 0 9 9" class="pixelicon-edit">
	<polygon fill="#EBEAF7" points="2,2 6,2 6,3 7,3 7,1 1,1 1,9 7,9 7,6 6,6 6,8 2,8"/>
	<rect fill="#FFFFFF" x="5" y="7" width="1" height="1"/>
	<polygon fill="#FFFFFF" points="2,2 6,2 6,4 5,4 5,5 4,5 4,6 3,6 3,8 2,8"/>
	<rect fill="#FFAEB0" x="7" y="2" width="1" height="1"/>
	<rect fill="#FFAEB0" x="8" y="3" width="1" height="1"/>
	<polygon fill="#FFE800" points="6,3 6,4 5,4 5,5 4,5 4,6 5,6 5,7 6,7 6,6 7,6 7,5 8,5 8,3"/>
	<rect fill="#FFCD00" x="4" y="6" width="1" height="1"/>
	<rect fill="#FFB100" x="3" y="6" width="1" height="1"/>
	<rect fill="#FFB100" x="4" y="7" width="1" height="1"/>
	<rect fill="#343341" x="3" y="7" width="1" height="1"/>
</svg>