<svg xmlns="http://www.w3.org/2000/svg" viewBox="0 0 9 9" class="pixelicon-edit">
	<rect fill="#D0EAFF" x="3" y="6" width="1" height="1"/>
	<rect fill="#D0EAFF" x="2" y="6" width="1" height="1"/>
	<rect fill="#D0EAFF" x="2" y="5" width="1" height="1"/>
	<polygon fill="#D0EAFF" points="1,1 6,1 6,2 5,2 5,3 4,3 4,4 3,4 3,5 2,5 2,7 4,7 4,8 1,8"/>
	<rect fill="#D0EAFF" x="5" y="5" width="1" height="1"/>
	<polygon fill="#89CDFF" points="4,6 4,8 5,8 5,7 6,7 6,6"/>
	<polygon fill="#D38100" points="7,2 7,1 6,1 6,2 5,2 5,3 4,3 4,4 3,4 3,6 5,6 5,5 6,5 6,4 7,4 7,3 8,3 8,2"/>
	<rect fill="#FFB100" x="2" y="5" width="1" height="1"/>
	<rect fill="#FFB100" x="3" y="6" width="1" height="1"/>
	<rect fill="#343341" x="2" y="6" width="1" height="1"/>
</svg>