<svg xmlns="http://www.w3.org/2000/svg" viewBox="0 0 9 9" class="pixelicon-fire">
	<path fill="#FFB100" d="M5,4V5H6V6H7V4H6V3H5V2H4V3H3V5H2V6H4V4z"/>
	<rect fill="#FFB100" x="5" y="6" width="1" height="1"/>
	<path fill="#FF8D00" d="M3,3H4V2H5V0H4V1H3z"/>
	<rect fill="#FF8D00" x="6" y="0" width="1" height="1"/>
	<rect fill="#FF8D00" x="1" y="1" width="1" height="1"/>
	<rect fill="#FF8D00" x="5" y="2" width="1" height="1"/>
	<rect fill="#FF8D00" x="7" y="2" width="1" height="1"/>
	<rect fill="#FF8D00" x="2" y="3" width="1" height="2"/>
	<rect fill="#FF8D00" x="6" y="3" width="1" height="1"/>
	<rect fill="#FF8D00" x="7" y="4" width="1" height="2"/>
	<rect fill="#FF8D00" x="1" y="5" width="1" height="1"/>
	<rect fill="#FF8D00" x="2" y="6" width="1" height="1"/>
	<rect fill="#FF8D00" x="6" y="6" width="1" height="1"/>
	<rect fill="#FF8D00" x="3" y="7" width="1" height="1"/>
	<rect fill="#FF8D00" x="5" y="7" width="1" height="1"/>
	<path fill="#FFE800" d="M4,6H3V7H4V8H5V6H6V5H5V4H4z"/>
</svg>