<svg xmlns="http://www.w3.org/2000/svg" viewBox="0 0 9 9" class="pixelicon-gingerbread-man">
	<polygon fill="#D38100" points="4,2 5,2 5,1 6,1 6,0 3,0 3,1 4,1"/>
	<path fill="#D38100" d="M6,4h1V1H6v2H4V2H3V1H2v3h1v2H2v3h2V8h1v1h2V6H6V4z M5,4v1H4V4H5z M4,7V6h1v1H4z"/>
	<polygon fill="#D38100" points="1,4 1,3 0,3 0,5 1,5 1,6 2,6 2,4"/>
	<polygon fill="#D38100" points="8,3 8,4 7,4 7,6 8,6 8,5 9,5 9,3"/>
	<rect fill="#343341" x="3" y="1" width="1" height="1"/>
	<rect fill="#343341" x="5" y="1" width="1" height="1"/>
	<rect fill="#EBEAF7" x="4" y="2" width="2" height="1"/>
	<rect fill="#EBEAF7" x="2" y="4" width="1" height="2"/>
	<rect fill="#EBEAF7" x="6" y="4" width="1" height="2"/>
	<rect fill="#F92F3C" x="4" y="4" width="1" height="1"/>
	<rect fill="#F92F3C" x="4" y="6" width="1" height="1"/>
</svg>