<svg xmlns="http://www.w3.org/2000/svg" viewBox="0 0 9 9" class="pixelicon-gingerbread-man">
	<path fill="#D38100" d="M7,5H6V4h1V1H6V0H3v1H2v3h1v1H1v1h1v1h5V6h1V5H7z M6,3H5V2h1V3z M3,2h1v1H3V2z M4,6V5h1v1H4z"/>
	<rect fill="#D38100" x="2" y="8" width="2" height="1"/>
	<rect fill="#D38100" x="5" y="8" width="2" height="1"/>
	<rect fill="#343341" x="3" y="2" width="1" height="1"/>
	<rect fill="#343341" x="5" y="2" width="1" height="1"/>
	<rect fill="#C10015" x="4" y="5" width="1" height="1"/>
	<rect fill="#C10015" x="4" y="7" width="1" height="1"/>
	<rect fill="#EBEAF7" x="0" y="5" width="1" height="1"/>
	<rect fill="#EBEAF7" x="8" y="5" width="1" height="1"/>
	<rect fill="#EBEAF7" x="2" y="7" width="2" height="1"/>
	<rect fill="#EBEAF7" x="5" y="7" width="2" height="1"/>
</svg>