<svg xmlns="http://www.w3.org/2000/svg" viewBox="0 0 9 9" class="pixelicon-grapes">
	<rect fill="#73E030" x="4" y="1" width="1" height="1"/>
	<rect fill="#73E030" x="3" y="2" width="1" height="1"/>
	<rect fill="#73E030" x="2" y="3" width="1" height="1"/>
	<rect fill="#6F47B3" x="5" y="2" width="1" height="1"/>
	<rect fill="#6F47B3" x="4" y="3" width="1" height="1"/>
	<rect fill="#6F47B3" x="6" y="3" width="1" height="1"/>
	<rect fill="#6F47B3" x="3" y="4" width="1" height="1"/>
	<rect fill="#6F47B3" x="5" y="4" width="1" height="1"/>
	<rect fill="#6F47B3" x="2" y="5" width="1" height="1"/>
	<rect fill="#6F47B3" x="4" y="5" width="1" height="1"/>
	<rect fill="#6F47B3" x="3" y="6" width="1" height="1"/>
	<rect fill="#6F47B3" x="5" y="6" width="1" height="1"/>
	<rect fill="#6F47B3" x="4" y="7" width="1" height="1"/>
	<rect fill="#9F65FF" x="4" y="2" width="1" height="1"/>
	<rect fill="#9F65FF" x="3" y="3" width="1" height="1"/>
	<rect fill="#9F65FF" x="5" y="3" width="1" height="1"/>
	<rect fill="#9F65FF" x="2" y="4" width="1" height="1"/>
	<rect fill="#9F65FF" x="4" y="4" width="1" height="1"/>
	<rect fill="#9F65FF" x="6" y="4" width="1" height="1"/>
	<rect fill="#9F65FF" x="3" y="5" width="1" height="1"/>
	<rect fill="#9F65FF" x="5" y="5" width="1" height="1"/>
	<rect fill="#9F65FF" x="4" y="6" width="1" height="1"/>
	<rect fill="#00812E" x="4" y="0" width="1" height="1"/>
	<path fill="#00AF3E" d="M2,1V2H1V3H3V2H4V1z"/>
</svg>