<svg xmlns="http://www.w3.org/2000/svg" viewBox="0 0 9 9" class="pixelicon-ice-cream">
	<rect fill="#D38100" x="3" y="4" width="1" height="1"/>
	<rect fill="#D38100" x="5" y="4" width="1" height="1"/>
	<rect fill="#D38100" x="4" y="5" width="1" height="1"/>
	<rect fill="#D38100" x="3" y="6" width="1" height="1"/>
	<rect fill="#D38100" x="5" y="6" width="1" height="1"/>
	<rect fill="#D38100" x="4" y="7" width="1" height="1"/>
	<rect fill="#B67100" x="2" y="4" width="1" height="1"/>
	<rect fill="#B67100" x="4" y="4" width="1" height="1"/>
	<rect fill="#B67100" x="3" y="5" width="1" height="1"/>
	<rect fill="#B67100" x="6" y="4" width="1" height="1"/>
	<rect fill="#B67100" x="5" y="5" width="1" height="1"/>
	<rect fill="#B67100" x="4" y="6" width="1" height="1"/>
	<polygon fill="#FFAEB0" points="7,2 6,2 6,1 3,1 3,2 2,2 2,4 3,4 3,5 4,5 4,4 7,4"/>
</svg>