<svg xmlns="http://www.w3.org/2000/svg" viewBox="0 0 9 9" class="pixelicon-instagram">
	<polygon fill="#9F65FF" points="2,1 7,1 7,2 2,2"/>
	<polygon fill="#9F65FF" points="7,2 8,2 8,7 7,7"/>
	<polygon fill="#9F65FF" points="4,3 6,3 6,5 5,5 5,4 4,4"/>
	<polygon fill="#FFB100" points="1,2 2,2 2,5 1,5"/>
	<polygon fill="#FFB100" points="3,4 4,4 4,5 5,5 5,6 3,6"/>
	<polygon fill="#FFB100" points="4,7 7,7 7,8 4,8"/>
	<polygon fill="#F92F3C" points="6,2 7,2 7,3 6,3"/>
	<polygon fill="#F92F3C" points="3,3 4,3 4,4 3,4"/>
	<polygon fill="#F92F3C" points="5,5 6,5 6,6 5,6"/>
	<polygon fill="#FFE800" points="1,5 2,5 2,7 1,7"/>
	<polygon fill="#FFE800" points="2,7 4,7 4,8 2,8"/>
</svg>