<svg xmlns="http://www.w3.org/2000/svg" viewBox="0 0 9 9" class="pixelicon-internet-explorer">
	<rect fill="#89CDFF" x="3" y="2" width="1" height="1"/>
	<rect fill="#89CDFF" x="5" y="2" width="1" height="1"/>
	<rect fill="#89CDFF" x="2" y="3" width="1" height="1"/>
	<path fill="#89CDFF" d="M7,5L7,3L6,3L6,4L3,4L3,5z"/>
	<rect fill="#89CDFF" x="2" y="5" width="1" height="1"/>
	<rect fill="#89CDFF" x="3" y="6" width="3" height="1"/>
	<rect fill="#FFE800" x="7" y="2" width="1" height="1"/>
	<rect fill="#FFE800" x="5" y="1" width="2" height="1"/>
	<rect fill="#FFE800" x="4" y="2" width="1" height="1"/>
	<rect fill="#FFE800" x="3" y="3" width="1" height="1"/>
	<rect fill="#FFE800" x="2" y="4" width="1" height="1"/>
	<rect fill="#FFE800" x="1" y="5" width="1" height="2"/>
	<rect fill="#FFE800" x="2" y="7" width="1" height="1"/>
</svg>