<svg xmlns="http://www.w3.org/2000/svg" viewBox="0 0 9 9" class="pixelicon-kiwifruit">
	<path fill="#E5E3D1" d="M2,5H3V6H5V5H6V4H5V3H3V4H2z"/>
	<path fill="#73E030" d="M3,2H4V3H6V2H5V1H3z"/>
	<rect fill="#73E030" x="2" y="2" width="1" height="1"/>
	<rect fill="#73E030" x="1" y="3" width="1" height="3"/>
	<rect fill="#73E030" x="6" y="3" width="1" height="3"/>
	<path fill="#73E030" d="M3,8H5V7H4V6H2V7H3z"/>
	<rect fill="#73E030" x="5" y="6" width="1" height="1"/>
	<path fill="#B67100" d="M7,6H6V7H5V8H7V7H8V6H9V3H8V2H7V1H5V2H6V3H7z"/>
	<rect fill="#343341" x="3" y="2" width="1" height="1"/>
	<rect fill="#343341" x="2" y="3" width="1" height="1"/>
	<rect fill="#343341" x="5" y="3" width="1" height="1"/>
	<rect fill="#343341" x="2" y="5" width="1" height="1"/>
	<rect fill="#343341" x="5" y="5" width="1" height="1"/>
	<rect fill="#343341" x="4" y="6" width="1" height="1"/>
</svg>