<svg xmlns="http://www.w3.org/2000/svg" viewBox="0 0 9 9" class="pixelicon-panda">
	<path fill="#A1A0B4" d="M0,3V5H1V7H2V8H3V6H2V5H3V6H4V5H5V6H6V5H7V6H6V8H7V7H8V5H9V3H8V4H7V3H8V2H6V3H3V2H1V3H2V4H1V3z"/>
	<rect fill="#EBEAF7" x="1" y="3" width="1" height="1"/>
	<rect fill="#EBEAF7" x="7" y="3" width="1" height="1"/>
	<path fill="#EBEAF7" d="M3,6v2h3V6H5v1H4V6z"/>
	<rect fill="#343341" x="2" y="5" width="1" height="1"/>
	<rect fill="#343341" x="6" y="5" width="1" height="1"/>
	<rect fill="#343341" x="4" y="5" width="1" height="2"/>
</svg>