<svg xmlns="http://www.w3.org/2000/svg" viewBox="0 0 9 9" class="pixelicon-koala-hug">
	<polygon fill="#A1A0B4" points="6,0 6,1 7,1 7,2 8,2 8,0"/>
	<polygon fill="#A1A0B4" points="6,2 6,1 3,1 3,2 4,2 4,3 5,3 5,2"/>
	<polygon fill="#A1A0B4" points="6,3 5,3 5,4 2,4 2,5 3,5 3,7 2,7 2,8 6,8 6,7 7,7 7,2 6,2"/>
	<rect fill="#EBEAF7" x="6" y="1" width="1" height="1"/>
	<rect fill="#EBEAF7" x="4" y="3" width="1" height="1"/>
	<rect fill="#343341" x="5" y="2" width="1" height="1"/>
	<rect fill="#343341" x="3" y="2" width="1" height="2"/>
</svg>