<svg xmlns="http://www.w3.org/2000/svg" viewBox="0 0 9 9" class="pixelicon-light-bulb-on">
	<rect fill="#FFE800" x="3" y="0" width="1" height="1"/>
	<rect fill="#FFE800" x="5" y="0" width="1" height="1"/>
	<rect fill="#FFE800" x="1" y="1" width="1" height="1"/>
	<rect fill="#FFE800" x="7" y="1" width="1" height="1"/>
	<path fill="#FFE800" d="M6,4V5H5V7H6V6H7V3H6V2H3V3H2V6H3V7H4V5H3V4z"/>
	<rect fill="#FFE800" x="0" y="3" width="1" height="1"/>
	<rect fill="#FFE800" x="8" y="3" width="1" height="1"/>
	<rect fill="#FFE800" x="0" y="5" width="1" height="1"/>
	<rect fill="#FFE800" x="8" y="5" width="1" height="1"/>
	<rect fill="#FFE800" x="1" y="7" width="1" height="1"/>
	<rect fill="#FFE800" x="7" y="7" width="1" height="1"/>
	<path fill="#FFFFFF" d="M3,4V5H4V7H5V5H6V4z"/>
	<rect fill="#6F6D81" x="3" y="7" width="3" height="1"/>
	<rect fill="#A1A0B4" x="4" y="8" width="1" height="1"/>
</svg>