<svg xmlns="http://www.w3.org/2000/svg" viewBox="0 0 9 9" class="pixelicon-lion">
	<rect fill="#343341" x="2" y="3" width="1" height="1"/>
	<rect fill="#343341" x="4" y="3" width="1" height="1"/>
	<polygon fill="#D38100" points="6,1 6,5 7,5 7,1"/>
	<polygon fill="#D38100" points="2,2 5,2 5,1 6,1 6,0 1,0 1,1 2,1"/>
	<polygon fill="#D38100" points="1,1 0,1 0,5 1,5"/>
	<polygon fill="#D38100" points="1,5 1,6 6,6 6,5"/>
	<path fill="#FFB100" d="M6,1H5v1H2V1H1v4h5V1z M2,4V3h1v1H2z M4,4V3h1v1H4z"/>
	<polygon fill="#FFB100" points="6,5 6,6 2,6 2,8 3,8 3,7 4,7 4,8 5,8 5,7 7,7 7,8 8,8 8,5"/>
	<rect fill="#FFB100" x="8" y="4" width="1" height="1"/>
</svg>