<svg xmlns="http://www.w3.org/2000/svg" viewBox="0 0 9 9" class="pixelicon-locomotive">
	<rect fill="#C10015" x="0" y="3" width="3" height="1"/>
	<rect fill="#C10015" x="1" y="7" width="1" height="1"/>
	<rect fill="#C10015" x="3" y="7" width="1" height="1"/>
	<rect fill="#C10015" x="5" y="7" width="1" height="1"/>
	<path fill="#F92F3C" d="M2,5H1V4H0V7H3V4H2z"/>
	<rect fill="#F92F3C" x="7" y="7" width="2" height="1"/>
	<rect fill="#89CDFF" x="1" y="4" width="1" height="1"/>
	<path fill="#343341" d="M4,5H3V7H8V5H7V4H6V5H5V4H4z"/>
	<path fill="#A1A0B4" d="M4,2V3H6V2H5V1H4V0H0V1H1V2z"/>
	<rect fill="#A1A0B4" x="6" y="3" width="1" height="1"/>
	<rect fill="#FFE800" x="8" y="6" width="1" height="1"/>
</svg>