<svg xmlns="http://www.w3.org/2000/svg" viewBox="0 0 9 9" class="pixelicon-mail-open">
	<polygon fill="#D38100" points="7,5 7,6 6,6 6,7 3,7 3,6 2,6 2,5 1,5 1,8 8,8 8,5"/>
	<polygon fill="#FFB100" points="6,2 6,1 3,1 3,2 2,2 2,3 7,3 7,2"/>
	<rect fill="#FFB100" x="1" y="3" width="1" height="1"/>
	<rect fill="#FFB100" x="7" y="3" width="1" height="1"/>
	<rect fill="#9C5F00" x="1" y="4" width="1" height="1"/>
	<rect fill="#9C5F00" x="2" y="5" width="1" height="1"/>
	<rect fill="#9C5F00" x="3" y="6" width="3" height="1"/>
	<rect fill="#9C5F00" x="6" y="5" width="1" height="1"/>
	<rect fill="#9C5F00" x="7" y="4" width="1" height="1"/>
	<rect fill="#D0EAFF" x="3" y="4" width="3" height="2"/>
	<polygon fill="#89CDFF" points="2,3 2,5 3,5 3,4 6,4 6,5 7,5 7,3"/>
</svg>