<svg xmlns="http://www.w3.org/2000/svg" viewBox="0 0 9 9" class="pixelicon-mail">
	<polygon fill="#D38100" points="7,4 7,5 6,5 6,6 3,6 3,5 2,5 2,4 1,4 1,7 8,7 8,4"/>
	<polygon fill="#FFB100" points="1,2 1,3 2,3 2,4 3,4 3,5 6,5 6,4 7,4 7,3 8,3 8,2"/>
	<rect fill="#9C5F00" x="1" y="3" width="1" height="1"/>
	<rect fill="#9C5F00" x="2" y="4" width="1" height="1"/>
	<rect fill="#9C5F00" x="3" y="5" width="3" height="1"/>
	<rect fill="#9C5F00" x="6" y="4" width="1" height="1"/>
	<rect fill="#9C5F00" x="7" y="3" width="1" height="1"/>
</svg>