<svg xmlns="http://www.w3.org/2000/svg" viewBox="0 0 9 9" class="pixelicon-mallard">
	<rect fill="#343341" x="2" y="2" width="1" height="1"/>
	<polygon fill="#00AF3E" points="3,2 3,3 2,3 2,4 5,4 5,3 4,3 4,1 2,1 2,2"/>
	<rect fill="#FFB100" x="1" y="2" width="1" height="1"/>
	<rect fill="#FFB100" x="4" y="7" width="1" height="1"/>
	<polygon fill="#E5E3D1" points="4,4 4,7 7,7 7,5 8,5 8,4"/>
	<rect fill="#EBEAF7" x="2" y="4" width="2" height="1"/>
	<rect fill="#343341" x="7" y="5" width="1" height="1"/>
	<polygon fill="#9C5F00" points="2,5 2,6 3,6 3,7 4,7 4,5"/>
</svg>