<svg xmlns="http://www.w3.org/2000/svg" viewBox="0 0 9 9" class="pixelicon-mallard">
	<rect fill="#343341" x="6" y="2" width="1" height="1"/>
	<polygon fill="#00AF3E" points="7,2 7,1 5,1 5,3 4,3 4,4 7,4 7,3 6,3 6,2"/>
	<rect fill="#FFB100" x="7" y="2" width="1" height="1"/>
	<rect fill="#FFB100" x="4" y="7" width="1" height="1"/>
	<polygon fill="#E5E3D1" points="1,4 1,5 2,5 2,7 5,7 5,4"/>
	<rect fill="#EBEAF7" x="5" y="4" width="2" height="1"/>
	<rect fill="#343341" x="1" y="5" width="1" height="1"/>
	<polygon fill="#9C5F00" points="5,5 5,7 6,7 6,6 7,6 7,5"/>
</svg>