<svg xmlns="http://www.w3.org/2000/svg" viewBox="0 0 9 9" class="pixelicon-meowth">
	<rect fill="#343341" x="4" y="2" width="1" height="1"/>
	<rect fill="#343341" x="2" y="2" width="1" height="1"/>
	<rect fill="#FFE800" x="3" width="1" height="2"/>
	<rect fill="#FFAEB0" x="5" width="1" height="1"/>
	<rect fill="#FFAEB0" x="2" width="1" height="1"/>
	<rect fill="#FFF8A9" x="7" y="5" width="1" height="1"/>
	<polygon fill="#FFF8A9" points="6,5 5,5 5,4 6,4 6,1 4,1 4,2 5,2 5,3 4,3 4,2 3,2 3,3 2,3 2,2 3,2 3,1 1,1 1,4 2,4 2,5 1,5 1,6 2,6 2,7 3,7 4,7 7,7 7,6 6,6"/>
	<polygon fill="#FFB100" points="7,3 7,4 8,4 8,5 9,5 9,3"/>
	<rect fill="#FFB100" x="4" y="7" width="1" height="1"/>
	<rect fill="#FFB100" x="2" y="7" width="1" height="1"/>
</svg>