<svg xmlns="http://www.w3.org/2000/svg" viewBox="0 0 9 9" class="pixelicon-mirror-ball">
	<rect fill="#ECEBF7" x="3" y="2" width="2" height="1"/>
	<rect fill="#ECEBF7" x="2" y="3" width="1" height="1"/>
	<rect fill="#ECEBF7" x="6" y="3" width="1" height="1"/>
	<rect fill="#ECEBF7" x="1" y="4" width="1" height="1"/>
	<path fill="#ECEBF7" d="M6,4H5V5H3V7H4V6H6z"/>
	<rect fill="#ECEBF7" x="7" y="4" width="1" height="1"/>
	<rect fill="#ECEBF7" x="6" y="6" width="2" height="1"/>
	<rect fill="#ECEBF7" x="4" y="7" width="2" height="1"/>
	<rect fill="#ECEBF7" x="3" y="8" width="1" height="1"/>
	<rect fill="#FFFCD9" x="1" y="1" width="1" height="1"/>
	<rect fill="#FFFCD9" x="8" y="2" width="1" height="1"/>
	<rect fill="#FFFCD9" x="0" y="8" width="1" height="1"/>
	<rect fill="#FFFCD9" x="8" y="8" width="1" height="1"/>
	<rect fill="#A2A1B3" x="5" y="2" width="1" height="1"/>
	<rect fill="#A2A1B3" x="3" y="3" width="1" height="1"/>
	<rect fill="#A2A1B3" x="4" y="4" width="1" height="1"/>
	<rect fill="#A2A1B3" x="6" y="4" width="1" height="1"/>
	<rect fill="#A2A1B3" x="1" y="5" width="1" height="1"/>
	<rect fill="#A2A1B3" x="7" y="5" width="1" height="1"/>
	<rect fill="#A2A1B3" x="2" y="7" width="1" height="1"/>
	<rect fill="#A2A1B3" x="4" y="8" width="1" height="1"/>
	<rect fill="#6F6D80" x="4" y="0" width="1" height="2"/>
	<rect fill="#FFFFFF" x="4" y="3" width="1" height="1"/>
	<rect fill="#FFFFFF" x="2" y="4" width="2" height="1"/>
	<rect fill="#FFFFFF" x="6" y="5" width="1" height="1"/>
	<rect fill="#FFFFFF" x="2" y="6" width="1" height="1"/>
	<rect fill="#FFFFFF" x="4" y="6" width="2" height="1"/>
	<rect fill="#FFFFFF" x="3" y="7" width="1" height="1"/>
	<rect fill="#99CCFF" x="5" y="3" width="1" height="1"/>
	<rect fill="#FFB3B3" x="2" y="5" width="1" height="1"/>
	<rect fill="#FFB3B3" x="1" y="6" width="1" height="1"/>
	<rect fill="#9868F7" x="6" y="7" width="1" height="1"/>
	<rect fill="#9868F7" x="5" y="8" width="1" height="1"/>
</svg>