<svg xmlns="http://www.w3.org/2000/svg" viewBox="0 0 9 9" class="pixelicon-mirror-ball">
	<rect fill="#EBEAF7" x="3" y="2" width="2" height="1"/>
	<rect fill="#EBEAF7" x="2" y="3" width="1" height="1"/>
	<rect fill="#EBEAF7" x="6" y="3" width="1" height="1"/>
	<rect fill="#EBEAF7" x="1" y="4" width="1" height="1"/>
	<path fill="#EBEAF7" d="M6,4H5V5H3V7H4V6H6z"/>
	<rect fill="#EBEAF7" x="7" y="4" width="1" height="1"/>
	<rect fill="#EBEAF7" x="6" y="6" width="2" height="1"/>
	<rect fill="#EBEAF7" x="4" y="7" width="2" height="1"/>
	<rect fill="#EBEAF7" x="3" y="8" width="1" height="1"/>
	<rect fill="#FFFBD4" x="1" y="1" width="1" height="1"/>
	<rect fill="#FFFBD4" x="8" y="2" width="1" height="1"/>
	<rect fill="#FFFBD4" x="0" y="8" width="1" height="1"/>
	<rect fill="#FFFBD4" x="8" y="8" width="1" height="1"/>
	<rect fill="#A1A0B4" x="5" y="2" width="1" height="1"/>
	<rect fill="#A1A0B4" x="3" y="3" width="1" height="1"/>
	<rect fill="#A1A0B4" x="4" y="4" width="1" height="1"/>
	<rect fill="#A1A0B4" x="6" y="4" width="1" height="1"/>
	<rect fill="#A1A0B4" x="1" y="5" width="1" height="1"/>
	<rect fill="#A1A0B4" x="7" y="5" width="1" height="1"/>
	<rect fill="#A1A0B4" x="2" y="7" width="1" height="1"/>
	<rect fill="#A1A0B4" x="4" y="8" width="1" height="1"/>
	<rect fill="#6F6D81" x="4" y="0" width="1" height="2"/>
	<rect fill="#FFFFFF" x="4" y="3" width="1" height="1"/>
	<rect fill="#FFFFFF" x="2" y="4" width="2" height="1"/>
	<rect fill="#FFFFFF" x="6" y="5" width="1" height="1"/>
	<rect fill="#FFFFFF" x="2" y="6" width="1" height="1"/>
	<rect fill="#FFFFFF" x="4" y="6" width="2" height="1"/>
	<rect fill="#FFFFFF" x="3" y="7" width="1" height="1"/>
	<rect fill="#89CDFF" x="5" y="3" width="1" height="1"/>
	<rect fill="#FFAEB0" x="2" y="5" width="1" height="1"/>
	<rect fill="#FFAEB0" x="1" y="6" width="1" height="1"/>
	<rect fill="#9F65FF" x="6" y="7" width="1" height="1"/>
	<rect fill="#9F65FF" x="5" y="8" width="1" height="1"/>
</svg>