<svg xmlns="http://www.w3.org/2000/svg" viewBox="0 0 9 9" class="pixelicon-monkey-love">
	<rect fill="#D38100" x="2" y="0" width="2" height="1"/>
	<rect fill="#D38100" x="5" y="0" width="2" height="1"/>
	<rect fill="#D38100" x="1" y="1" width="1" height="1"/>
	<rect fill="#D38100" x="7" y="1" width="1" height="1"/>
	<rect fill="#D38100" x="0" y="2" width="1" height="3"/>
	<rect fill="#D38100" x="8" y="2" width="1" height="3"/>
	<path fill="#D38100" d="M2,3V5H1V6H2V7H3V9H7V6H8V5H7V3z M6,4V6H3V4z"/>
	<rect fill="#343341" x="3" y="4" width="1" height="1"/>
	<rect fill="#343341" x="5" y="4" width="1" height="1"/>
	<rect fill="#FFE4C2" x="4" y="1" width="1" height="1"/>
	<path fill="#FFE4C2" d="M4,5H3V6H6V5H5V4H4z"/>
</svg>