<svg xmlns="http://www.w3.org/2000/svg" viewBox="0 0 9 9" class="pixelicon-mooncake-whole">
	<rect fill="#B67100" x="3" y="1" width="3" height="1"/>
	<rect fill="#B67100" x="2" y="2" width="1" height="1"/>
	<rect fill="#B67100" x="6" y="2" width="1" height="1"/>
	<rect fill="#B67100" x="0" y="3" width="1" height="4"/>
	<rect fill="#B67100" x="3" y="3" width="2" height="1"/>
	<rect fill="#B67100" x="2" y="5" width="2" height="4"/>
	<path fill="#5C3D00" d="M8,3H5V4H7V6H5V7H8z"/>
	<path fill="#D38100" d="M3,4V3H2V2H3V1H6V2H7V3H9V2H8V1H7V0H2V1H1V2H0V3H1V4H2V5H5V4z"/>
	<rect fill="#D38100" x="3" y="2" width="3" height="1"/>
	<rect fill="#FF8D00" x="5" y="4" width="2" height="2"/>
	<rect fill="#9C5F00" x="8" y="3" width="1" height="4"/>
	<rect fill="#9C5F00" x="1" y="4" width="1" height="4"/>
	<rect fill="#9C5F00" x="4" y="5" width="1" height="4"/>
</svg>