<svg xmlns="http://www.w3.org/2000/svg" viewBox="0 0 9 9" class="pixelicon-owl-1">
	<path fill="#9C5F00" d="M2,2H4V3H5V2H7V0H6V1H3V0H2z"/>
	<path fill="#9C5F00" d="M2,4V5H3V6H4V5H5V6H6V5H7V4z"/>
	<path fill="#9C5F00" d="M2,8H4V7H3V6H2V5H1V7H2z"/>
	<path fill="#9C5F00" d="M5,8H7V7H8V5H7V6H6V7H5z"/>
	<rect fill="#9C5F00" x="4" y="6" width="1" height="1"/>
	<rect fill="#B67100" x="1" y="2" width="1" height="2"/>
	<rect fill="#B67100" x="7" y="2" width="1" height="2"/>
	<rect fill="#B67100" x="2" y="5" width="1" height="1"/>
	<rect fill="#B67100" x="4" y="5" width="1" height="1"/>
	<rect fill="#B67100" x="6" y="5" width="1" height="1"/>
	<rect fill="#B67100" x="3" y="6" width="1" height="1"/>
	<rect fill="#B67100" x="5" y="6" width="1" height="1"/>
	<rect fill="#B67100" x="4" y="7" width="1" height="1"/>
	<rect fill="#FFB100" x="4" y="3" width="1" height="1"/>
	<rect fill="#FFB100" x="3" y="8" width="1" height="1"/>
	<rect fill="#FFB100" x="5" y="8" width="1" height="1"/>
	<rect fill="#343341" x="3" y="2" width="1" height="1"/>
	<rect fill="#343341" x="5" y="2" width="1" height="1"/>
	<path fill="#E5E3D1" d="M2,4H4V3H3V2H2z"/>
	<path fill="#E5E3D1" d="M5,4H7V2H6V3H5z"/>
</svg>