<svg xmlns="http://www.w3.org/2000/svg" viewBox="0 0 9 9" class="pixelicon-pancakes">
	<path fill="#FFB100" d="M2,5H4V4H3V2H6V5H7V4H8V2H7V1H2V2H1V4H2z"/>
	<rect fill="#FFB100" x="1" y="5" width="1" height="1"/>
	<rect fill="#FFB100" x="7" y="5" width="1" height="1"/>
	<rect fill="#FFB100" x="2" y="6" width="3" height="1"/>
	<rect fill="#FFB100" x="6" y="6" width="1" height="1"/>
	<path fill="#FFC800" d="M4,5H5V7H6V3H4V2H3V4H4z"/>
	<rect fill="#FDF3A1" x="4" y="2" width="2" height="1"/>
	<rect fill="#FDF3A1" x="1" y="4" width="1" height="1"/>
	<rect fill="#FDF3A1" x="7" y="4" width="1" height="1"/>
	<rect fill="#FDF3A1" x="2" y="5" width="3" height="1"/>
	<rect fill="#FDF3A1" x="6" y="5" width="1" height="1"/>
	<rect fill="#FDF3A1" x="1" y="6" width="1" height="1"/>
	<rect fill="#FDF3A1" x="7" y="6" width="1" height="1"/>
	<rect fill="#FDF3A1" x="2" y="7" width="5" height="1"/>
</svg>