<svg xmlns="http://www.w3.org/2000/svg" viewBox="0 0 9 9" class="pixelicon-panda">
	<path fill="#EBEAF7" d="M2,1v1h1v1H2V2H1v2h6V1H2z M4,3V2h1v1H4z"/>
	<polygon fill="#EBEAF7" points="6,6 5,6 5,5 3,5 3,7 4,7 4,8 5,8 5,7 7,7 7,5 6,5"/>
	<rect fill="#343341" x="2" y="0" width="1" height="1"/>
	<rect fill="#343341" x="5" y="0" width="1" height="1"/>
	<rect fill="#343341" x="2" y="2" width="1" height="1"/>
	<rect fill="#343341" x="4" y="2" width="1" height="1"/>
	<polygon fill="#343341" points="3,4 3,5 5,5 5,6 6,6 6,5 7,5 7,4"/>
	<rect fill="#343341" x="2" y="5" width="1" height="1"/>
	<rect fill="#343341" x="2" y="7" width="2" height="1"/>
	<rect fill="#343341" x="5" y="7" width="2" height="1"/>
</svg>