<svg xmlns="http://www.w3.org/2000/svg" viewBox="0 0 9 9" class="pixelicon-pichu">
	<rect fill="#343341" x="2" y="1" width="1" height="1"/>
	<rect fill="#343341" x="5" y="1" width="1" height="1"/>
	<rect fill="#343341" x="1" y="2" width="1" height="1"/>
	<rect fill="#343341" x="6" y="2" width="1" height="1"/>
	<rect fill="#343341" x="2" y="3" width="1" height="1"/>
	<rect fill="#343341" x="4" y="3" width="1" height="1"/>
	<rect fill="#343341" x="3" y="5" width="2" height="1"/>
	<rect fill="#343341" x="6" y="6" width="1" height="1"/>
	<rect fill="#343341" x="5" y="7" width="1" height="1"/>
	<rect fill="#FFE800" x="2" y="2" width="1" height="1"/>
	<rect fill="#FFE800" x="5" y="2" width="1" height="2"/>
	<path fill="#FFE800" d="M4,3H3V5H5V4H4z"/>
	<rect fill="#FFE800" x="3" y="6" width="2" height="2"/>
	<rect fill="#F68285" x="2" y="4" width="1" height="1"/>
	<rect fill="#F68285" x="5" y="4" width="1" height="1"/>
</svg>