<svg xmlns="http://www.w3.org/2000/svg" viewBox="0 0 9 9" class="pixelicon-pikachu">
	<polygon fill="#FFE800" points="5,1 4,1 4,2 3,2 3,1 2,1 2,3 3,3 3,4 2,4 2,8 3,8 3,7 5,7 5,8 6,8 6,5 5,5 5,4 4,4 4,3 5,3 5,4 6,4 6,2 5,2"/>
	<rect fill="#FFE800" x="1" y="3" width="1" height="1"/>
	<polygon fill="#FFE800" points="8,3 8,4 7,4 7,6 8,6 8,5 9,5 9,3"/>
	<rect fill="#D38100" x="6" y="6" width="1" height="1"/>
	<rect fill="#F92F3C" x="1" y="4" width="1" height="1"/>
	<rect fill="#F92F3C" x="5" y="4" width="1" height="1"/>
	<rect fill="#343341" x="2" y="0" width="1" height="1"/>
	<rect fill="#343341" x="4" y="0" width="1" height="1"/>
	<rect fill="#343341" x="2" y="3" width="1" height="1"/>
	<rect fill="#343341" x="4" y="3" width="1" height="1"/>
</svg>