<svg xmlns="http://www.w3.org/2000/svg" viewBox="0 0 9 9" class="pixelicon-pineapple">
	<rect fill="#FFE800" x="3" y="3" width="1" height="1"/>
	<rect fill="#FFE800" x="5" y="3" width="1" height="1"/>
	<rect fill="#FFE800" x="2" y="4" width="1" height="1"/>
	<rect fill="#FFE800" x="4" y="4" width="1" height="1"/>
	<rect fill="#FFE800" x="6" y="4" width="1" height="1"/>
	<rect fill="#FFE800" x="3" y="5" width="1" height="1"/>
	<rect fill="#FFE800" x="5" y="5" width="1" height="1"/>
	<rect fill="#FFE800" x="2" y="6" width="1" height="1"/>
	<rect fill="#FFE800" x="4" y="6" width="1" height="1"/>
	<rect fill="#FFE800" x="6" y="6" width="1" height="1"/>
	<rect fill="#FFE800" x="3" y="7" width="1" height="1"/>
	<rect fill="#FFE800" x="5" y="7" width="1" height="1"/>
	<rect fill="#FFC800" x="4" y="3" width="1" height="1"/>
	<rect fill="#FFC800" x="3" y="4" width="1" height="1"/>
	<rect fill="#FFC800" x="5" y="4" width="1" height="1"/>
	<rect fill="#FFC800" x="2" y="5" width="1" height="1"/>
	<rect fill="#FFC800" x="4" y="5" width="1" height="1"/>
	<rect fill="#FFC800" x="6" y="5" width="1" height="1"/>
	<rect fill="#FFC800" x="3" y="6" width="1" height="1"/>
	<rect fill="#FFC800" x="5" y="6" width="1" height="1"/>
	<rect fill="#FFC800" x="4" y="7" width="1" height="1"/>
	<rect fill="#00AF3E" x="4" y="0" width="1" height="2"/>
	<rect fill="#00AF3E" x="1" y="2" width="1" height="1"/>
	<rect fill="#00AF3E" x="2" y="1" width="1" height="1"/>
	<rect fill="#00AF3E" x="3" y="2" width="1" height="1"/>
	<rect fill="#00AF3E" x="5" y="2" width="2" height="1"/>
	<rect fill="#00AF3E" x="7" y="3" width="1" height="1"/>
	<rect fill="#00812E" x="2" y="0" width="1" height="1"/>
	<rect fill="#00812E" x="3" y="1" width="1" height="1"/>
	<rect fill="#00812E" x="6" y="0" width="1" height="1"/>
	<rect fill="#00812E" x="5" y="1" width="1" height="1"/>
	<rect fill="#00812E" x="4" y="2" width="1" height="1"/>
</svg>