<svg xmlns="http://www.w3.org/2000/svg" viewBox="0 0 9 9" class="pixelicon-pizza-slice">
	<polygon fill="#FFE800" points="5,3 5,4 4,4 4,3 5,3 5,2 3,2 3,3 2,3 2,4 3,4 3,5 4,5 4,6 5,6 5,5 6,5 6,3"/>
	<polygon fill="#FFE800" points="3,5 2,5 2,8 3,8 3,7 4,7 4,6 3,6"/>
	<rect fill="#D38100" x="2" y="1" width="3" height="1"/>
	<rect fill="#D38100" x="5" y="2" width="1" height="1"/>
	<rect fill="#D38100" x="6" y="3" width="1" height="1"/>
	<rect fill="#C10015" x="2" y="2" width="1" height="1"/>
	<rect fill="#C10015" x="4" y="3" width="1" height="1"/>
	<rect fill="#C10015" x="3" y="5" width="1" height="1"/>
	<rect fill="#00AF3E" x="2" y="4" width="1" height="1"/>
</svg>