<svg xmlns="http://www.w3.org/2000/svg" viewBox="0 0 9 9" class="pixelicon-pizza-slice">
	<rect fill="#D38100" x="2" y="1" width="3" height="1"/>
	<rect fill="#D38100" x="5" y="2" width="1" height="1"/>
	<rect fill="#D38100" x="6" y="3" width="1" height="1"/>
	<rect fill="#FFB100" x="5" y="4" width="1" height="1"/>
	<rect fill="#FFB100" x="4" y="5" width="1" height="1"/>
	<rect fill="#FFB100" x="3" y="6" width="1" height="1"/>
	<rect fill="#FFB100" x="2" y="7" width="1" height="1"/>
	<polygon fill="#FFE800" points="5,3 5,2 3,2 3,3 2,3 2,4 3,4 3,5 5,5 5,4 4,4 4,3"/>
	<rect fill="#FFE800" x="5" y="3" width="1" height="1"/>
	<rect fill="#FFE800" x="2" y="5" width="1" height="2"/>
	<rect fill="#C10015" x="2" y="2" width="1" height="1"/>
	<rect fill="#C10015" x="4" y="3" width="1" height="1"/>
	<rect fill="#C10015" x="3" y="5" width="1" height="1"/>
	<rect fill="#00AF3E" x="2" y="4" width="1" height="1"/>
</svg>