<svg xmlns="http://www.w3.org/2000/svg" viewBox="0 0 9 9" class="pixelicon-pizza-whole">
	<rect fill="#D38100" x="3" y="1" width="3" height="1"/>
	<rect fill="#D38100" x="6" y="2" width="1" height="1"/>
	<rect fill="#D38100" x="7" y="3" width="1" height="3"/>
	<rect fill="#D38100" x="6" y="6" width="1" height="1"/>
	<rect fill="#D38100" x="3" y="7" width="3" height="1"/>
	<rect fill="#D38100" x="2" y="6" width="1" height="1"/>
	<rect fill="#D38100" x="1" y="3" width="1" height="3"/>
	<rect fill="#D38100" x="2" y="2" width="1" height="1"/>
	<rect fill="#C10015" x="3" y="2" width="1" height="1"/>
	<rect fill="#C10015" x="5" y="2" width="1" height="1"/>
	<rect fill="#C10015" x="2" y="3" width="1" height="1"/>
	<rect fill="#C10015" x="4" y="3" width="1" height="1"/>
	<rect fill="#C10015" x="6" y="3" width="1" height="1"/>
	<rect fill="#C10015" x="3" y="4" width="1" height="1"/>
	<rect fill="#C10015" x="5" y="4" width="1" height="1"/>
	<rect fill="#C10015" x="2" y="5" width="1" height="1"/>
	<rect fill="#C10015" x="4" y="5" width="1" height="1"/>
	<rect fill="#C10015" x="6" y="5" width="1" height="1"/>
	<rect fill="#C10015" x="3" y="6" width="1" height="1"/>
	<rect fill="#C10015" x="5" y="6" width="1" height="1"/>
	<rect fill="#FFE800" x="4" y="2" width="1" height="1"/>
	<rect fill="#FFE800" x="2" y="4" width="1" height="1"/>
	<rect fill="#FFE800" x="4" y="4" width="1" height="1"/>
	<rect fill="#FFE800" x="6" y="4" width="1" height="1"/>
	<rect fill="#FFE800" x="4" y="6" width="1" height="1"/>
	<rect fill="#FFB100" x="3" y="3" width="1" height="1"/>
	<rect fill="#FFB100" x="5" y="5" width="1" height="1"/>
	<rect fill="#00AF3E" x="5" y="3" width="1" height="1"/>
	<rect fill="#00AF3E" x="3" y="5" width="1" height="1"/>
</svg>