<svg xmlns="http://www.w3.org/2000/svg" viewBox="0 0 9 9" class="pixelicon-plane">
	<rect fill="#89CDFF" x="7" y="4" width="2" height="1"/>
	<polygon fill="#F92F3C" points="1,2 1,1 0,1 0,3 2,3 2,2"/>
	<polyline fill="#89CDFF" points="5,4 6,4 6,5 5,5"/>
	<rect fill="#89CDFF" x="3" y="4" width="1" height="1"/>
	<polygon fill="#EBEAF7" points="7,5 7,4 8,4 8,3 0,3 0,4 1,4 1,5 2,5 2,6 3,6 3,5 3,4 4,4 4,5 5,5 5,4 6,4 6,5 6,6 9,6 9,5"/>
	<polygon fill="#F92F3C" points="3,5 3,6 2,6 2,7 5,7 5,6 6,6 6,5"/>
</svg>