<svg xmlns="http://www.w3.org/2000/svg" viewBox="0 0 9 9" class="pixelicon-pretzel">
	<rect fill="#FFB100" x="2" y="1" width="2" height="1"/>
	<rect fill="#FFB100" x="5" y="1" width="2" height="1"/>
	<rect fill="#FFB100" x="1" y="2" width="1" height="3"/>
	<rect fill="#FFB100" x="4" y="2" width="1" height="2"/>
	<rect fill="#FFB100" x="7" y="2" width="1" height="3"/>
	<rect fill="#FFB100" x="3" y="4" width="1" height="1"/>
	<rect fill="#FFB100" x="5" y="4" width="1" height="1"/>
	<rect fill="#FFB100" x="2" y="5" width="1" height="1"/>
	<rect fill="#FFB100" x="6" y="5" width="1" height="1"/>
	<rect fill="#FFB100" x="3" y="6" width="3" height="1"/>
	<rect fill="#D38100" x="2" y="2" width="2" height="1"/>
	<rect fill="#D38100" x="5" y="2" width="2" height="1"/>
	<rect fill="#D38100" x="4" y="4" width="1" height="1"/>
	<rect fill="#D38100" x="1" y="5" width="1" height="1"/>
	<rect fill="#D38100" x="3" y="5" width="1" height="1"/>
	<rect fill="#D38100" x="5" y="5" width="1" height="1"/>
	<rect fill="#D38100" x="7" y="5" width="1" height="1"/>
	<rect fill="#D38100" x="2" y="6" width="1" height="1"/>
	<rect fill="#D38100" x="6" y="6" width="1" height="1"/>
	<rect fill="#D38100" x="3" y="7" width="3" height="1"/>
</svg>