<svg xmlns="http://www.w3.org/2000/svg" viewBox="0 0 9 9" class="pixelicon-rabbit-white">
	<path fill="#EBEAF7" d="M6,5V3h1V2h1V0H7v1H6v1H5v1H4V2h1V0H4v1H3v1H2v1H1v3h2v1H2v1h3V7h1V6h1v1H6v1h2V5H6z M5,4v1H4V4H5z M2,5V4h1 v1H2z"/>
	<rect fill="#EBEAF7" x="8" y="4" width="1" height="1"/>
	<rect fill="#A1A0B4" x="6" y="6" width="1" height="1"/>
	<rect fill="#A1A0B4" x="5" y="7" width="1" height="1"/>
	<rect fill="#F92F3C" x="2" y="4" width="1" height="1"/>
	<rect fill="#F92F3C" x="4" y="4" width="1" height="1"/>
</svg>