<svg xmlns="http://www.w3.org/2000/svg" viewBox="0 0 9 9" class="pixelicon-rabbit-grey">
	<path fill="#A1A0B4" d="M7,3V2h1V0H7v1H6v1H5v1H3V2H2v1H1v3h2v1H2v1h3V7h1V6h1v1H6v1h2V5H6V3H7z M3,5H2V4h1V5z M5,5H4V4h1V5z"/>
	<rect fill="#A1A0B4" x="3" y="1" width="1" height="1"/>
	<rect fill="#A1A0B4" x="4" y="0" width="1" height="1"/>
	<rect fill="#A1A0B4" x="8" y="4" width="1" height="1"/>
	<rect fill="#6F6D81" x="6" y="6" width="1" height="1"/>
	<rect fill="#6F6D81" x="5" y="7" width="1" height="1"/>
	<rect fill="#343341" x="2" y="4" width="1" height="1"/>
	<rect fill="#343341" x="4" y="4" width="1" height="1"/>
	<rect fill="#FFAEB0" x="3" y="2" width="1" height="1"/>
	<rect fill="#FFAEB0" x="4" y="1" width="1" height="1"/>
</svg>