<svg xmlns="http://www.w3.org/2000/svg" viewBox="0 0 9 9" class="pixelicon-raccoon">
	<polygon fill="#A1A0B4" points="2,2 2,3 3,3 3,2 5,2 5,0 4,0 4,1 1,1 1,0 0,0 0,2"/>
	<polygon fill="#A1A0B4" points="7,4 6,4 6,3 4,3 4,4 1,4 1,6 7,6"/>
	<rect fill="#A1A0B4" x="7" y="6" width="2" height="1"/>
	<rect fill="#A1A0B4" x="7" y="8" width="1" height="1"/>
	<rect fill="#343341" x="0" y="2" width="2" height="1"/>
	<rect fill="#343341" x="3" y="2" width="2" height="1"/>
	<rect fill="#343341" x="2" y="3" width="1" height="1"/>
	<rect fill="#343341" x="7" y="5" width="1" height="1"/>
	<rect fill="#343341" x="7" y="7" width="2" height="1"/>
	<rect fill="#343341" x="6" y="8" width="1" height="1"/>
	<rect fill="#EBEAF7" x="1" y="3" width="1" height="1"/>
	<rect fill="#EBEAF7" x="3" y="3" width="1" height="1"/>
	<rect fill="#6F6D81" x="1" y="6" width="1" height="1"/>
	<rect fill="#6F6D81" x="3" y="6" width="1" height="1"/>
	<rect fill="#6F6D81" x="5" y="6" width="1" height="1"/>
</svg>