<svg xmlns="http://www.w3.org/2000/svg" viewBox="0 0 9 9" class="pixelicon-rainbow">
	<rect fill="#F92F3C" x="1" y="5" width="1" height="3"/>
	<rect fill="#F92F3C" x="2" y="3" width="1" height="2"/>
	<rect fill="#F92F3C" x="3" y="2" width="2" height="1"/>
	<rect fill="#F92F3C" x="5" y="1" width="3" height="1"/>
	<rect fill="#FFB100" x="2" y="5" width="1" height="3"/>
	<polygon fill="#FFB100" points="3,3 3,5 4,5 4,4 5,4 5,3"/>
	<rect fill="#FFB100" x="5" y="2" width="3" height="1"/>
	<rect fill="#FFE800" x="3" y="5" width="1" height="3"/>
	<rect fill="#FFE800" x="4" y="4" width="1" height="1"/>
	<rect fill="#FFE800" x="5" y="3" width="3" height="1"/>
	<rect fill="#73E030" x="4" y="5" width="1" height="3"/>
	<rect fill="#73E030" x="5" y="4" width="3" height="1"/>
	<rect fill="#00AF3E" x="5" y="5" width="1" height="1"/>
	<rect fill="#4435FF" x="5" y="6" width="1" height="2"/>
	<rect fill="#4435FF" x="6" y="5" width="2" height="1"/>
</svg>