<svg xmlns="http://www.w3.org/2000/svg" viewBox="0 0 9 9" class="pixelicon-rain">
	<polygon fill="#A1A0B4" points="7,2 7,1 6,1 6,2 5,2 5,1 3,1 3,2 2,2 2,3 1,3 1,4 2,4 2,5 7,5 7,4 8,4 8,2"/>
	<rect fill="#D0EAFF" x="2" y="6" width="1" height="1"/>
	<rect fill="#D0EAFF" x="4" y="6" width="1" height="1"/>
	<rect fill="#D0EAFF" x="6" y="6" width="1" height="1"/>
	<rect fill="#D0EAFF" x="1" y="8" width="1" height="1"/>
	<rect fill="#D0EAFF" x="3" y="8" width="1" height="1"/>
	<rect fill="#D0EAFF" x="5" y="8" width="1" height="1"/>
</svg>