<svg xmlns="http://www.w3.org/2000/svg" viewBox="0 0 9 9" class="pixelicon-reddit-detailed">
	<polygon fill="#F92F3C" points="2,4 4,4 4,2 6,2 6,1 3,1 3,2 2,2 2,3 1,3 1,6 2,6"/>
	<polygon fill="#F92F3C" points="7,3 7,2 6,2 6,3 5,3 5,4 7,4 7,6 8,6 8,3"/>
	<rect fill="#F92F3C" x="3" y="5" width="1" height="1"/>
	<rect fill="#F92F3C" x="5" y="5" width="1" height="1"/>
	<rect fill="#F92F3C" x="2" y="6" width="1" height="1"/>
	<rect fill="#F92F3C" x="6" y="6" width="1" height="1"/>
	<rect fill="#F92F3C" x="3" y="7" width="3" height="1"/>
	<rect fill="#FFAEB0" x="4" y="2" width="1" height="2"/>
	<rect fill="#FFAEB0" x="2" y="4" width="1" height="1"/>
	<rect fill="#FFAEB0" x="6" y="4" width="1" height="1"/>
	<rect fill="#FFFFFF" x="5" y="2" width="1" height="1"/>
	<polygon fill="#FFFFFF" points="5,6 5,5 6,5 6,4 3,4 3,5 4,5 4,6 3,6 3,7 6,7 6,6"/>
	<rect fill="#FFFFFF" x="2" y="5" width="1" height="1"/>
	<rect fill="#FFFFFF" x="6" y="5" width="1" height="1"/>
</svg>