<svg xmlns="http://www.w3.org/2000/svg" viewBox="0 0 9 9" class="pixelicon-rickroll">
	<polygon fill="#FFB100" points="3,1 3,3 4,3 4,2 6,2 6,1"/>
	<polygon fill="#EBEAF7" points="4,5 4,9 5,9 5,5"/>
	<polygon fill="#343341" points="2,5 2,8 3,8 3,7 4,7 4,5"/>
	<rect fill="#343341" x="5" y="5" width="1" height="1"/>
	<polygon fill="#343341" points="6,6 6,7 5,7 5,9 6,9 6,8 7,8 7,6"/>
	<rect fill="#343341" x="3" y="8" width="1" height="1"/>
	<polygon fill="#FFE4C2" points="4,2 4,3 3,3 3,4 4,4 4,5 5,5 5,4 6,4 6,2"/>
	<rect fill="#FFE4C2" x="5" y="6" width="1" height="1"/>
	<rect fill="#FFE4C2" x="3" y="7" width="1" height="1"/>
</svg>