<svg xmlns="http://www.w3.org/2000/svg" viewBox="0 0 9 9" class="pixelicon-rudolph">
	<polygon fill="#D38100" points="7,5 7,4 5,4 5,2 3,2 3,3 4,3 4,4 3,4 3,3 2,3 2,5 4,5 4,6 5,6 5,7 7,7 7,8 8,8 8,5"/>
	<rect fill="#D38100" x="5" y="1" width="1" height="1"/>
	<rect fill="#D38100" x="8" y="4" width="1" height="1"/>
	<rect fill="#D38100" x="3" y="6" width="1" height="2"/>
	<rect fill="#D38100" x="8" y="8" width="1" height="1"/>
	<rect fill="#9C5F00" x="3" y="1" width="1" height="1"/>
	<rect fill="#343341" x="3" y="3" width="1" height="1"/>
	<rect fill="#F92F3C" x="1" y="3" width="1" height="1"/>
</svg>