<svg xmlns="http://www.w3.org/2000/svg" viewBox="0 0 9 9" class="pixelicon-sacabambaspis">
	<polygon fill="#A1A0B4" points="7,4 7,2 8,2 8,1 2,1 2,2 4,2 4,4 2,4 2,2 1,2 1,3 0,3 0,5 2,5 2,6 4,6 4,5 8,5 8,6 9,6 9,4"/>
	<polygon fill="#EBEAF7" points="7,6 7,7 5,7 5,6 2,6 2,5 0,5 0,6 1,6 1,7 3,7 3,8 8,8 8,7 9,7 9,6"/>
	<polygon fill="#EBEAF7" points="3,3 4,3 4,2 2,2 2,4 3,4"/>
	<polygon fill="#EBEAF7" points="7,2 7,4 8,4 8,3 9,3 9,2"/>
	<rect fill="#343341" x="3" y="3" width="1" height="1"/>
	<rect fill="#343341" x="8" y="3" width="1" height="1"/>
	<polygon fill="#343341" points="4,5 4,6 5,6 5,7 7,7 7,6 8,6 8,5"/>
</svg>