<svg xmlns="http://www.w3.org/2000/svg" viewBox="0 0 9 9" class="pixelicon-sad-pepe">
	<path fill="#00AF3E" d="M7,2V1H5v1H4V1H2v1H1v1H0v5h7V7H3V6h5V2H7z M3,5H2V4h1V3h1v1v1H3z M7,5H6H5V4h1V3h1V5z"/>
	<rect fill="#C10015" x="3" y="6" width="5" height="1"/>
	<rect fill="#FFFFFF" x="3" y="3" width="1" height="1"/>
	<rect fill="#FFFFFF" x="2" y="4" width="1" height="1"/>
	<rect fill="#FFFFFF" x="6" y="3" width="1" height="1"/>
	<rect fill="#FFFFFF" x="5" y="4" width="1" height="1"/>
	<rect fill="#343341" x="3" y="4" width="1" height="1"/>
	<rect fill="#343341" x="6" y="4" width="1" height="1"/>
</svg>