<svg xmlns="http://www.w3.org/2000/svg" viewBox="0 0 9 9" class="pixelicon-safari">
	<path fill="#89CDFF" d="M6,1L3,1L3,2L2,2L2,3L1,3L1,6L2,6L2,7L3,7L3,8L6,8L6,7L7,7L7,6L8,6L8,3L6,3z M4,6L3,6L3,5L4,5z M5,5L4,5L4,4L5,4z M6,3L6,4L5,4L5,3z"/>
	<rect fill="#EBEAF7" x="3" y="0" width="3" height="1"/>
	<rect fill="#EBEAF7" x="2" y="1" width="1" height="1"/>
	<rect fill="#EBEAF7" x="6" y="1" width="1" height="1"/>
	<rect fill="#EBEAF7" x="1" y="2" width="1" height="1"/>
	<rect fill="#EBEAF7" x="7" y="2" width="1" height="1"/>
	<rect fill="#EBEAF7" x="0" y="3" width="1" height="3"/>
	<rect fill="#EBEAF7" x="8" y="3" width="1" height="3"/>
	<rect fill="#EBEAF7" x="1" y="6" width="1" height="1"/>
	<rect fill="#EBEAF7" x="7" y="6" width="1" height="1"/>
	<rect fill="#EBEAF7" x="2" y="7" width="1" height="1"/>
	<rect fill="#EBEAF7" x="6" y="7" width="1" height="1"/>
	<rect fill="#EBEAF7" x="3" y="8" width="3" height="1"/>
	<rect fill="#F92F3C" x="6" y="2" width="1" height="1"/>
	<rect fill="#F92F3C" x="5" y="3" width="1" height="1"/>
	<rect fill="#FFFFFF" x="4" y="4" width="1" height="1"/>
	<rect fill="#FFFFFF" x="3" y="5" width="1" height="1"/>
</svg>