<svg xmlns="http://www.w3.org/2000/svg" viewBox="0 0 9 9" class="pixelicon-safari">
	<rect fill="#EBEAF7" x="3" y="1" width="3" height="1"/>
	<rect fill="#EBEAF7" x="2" y="2" width="1" height="1"/>
	<rect fill="#EBEAF7" x="1" y="3" width="1" height="3"/>
	<rect fill="#EBEAF7" x="2" y="6" width="1" height="1"/>
	<rect fill="#EBEAF7" x="3" y="7" width="3" height="1"/>
	<rect fill="#EBEAF7" x="6" y="6" width="1" height="1"/>
	<rect fill="#EBEAF7" x="7" y="3" width="1" height="3"/>
	<path fill="#89CDFF" d="M5,3L6,3L6,2L3,2L3,3L2,3L2,6L3,6L3,5L4,5L4,4L5,4z"/>
	<path fill="#89CDFF" d="M4,6L3,6L3,7L6,7L6,6L7,6L7,3L6,3L6,4L5,4L5,5L4,5z"/>
	<rect fill="#F92F3C" x="6" y="2" width="1" height="1"/>
	<rect fill="#F92F3C" x="5" y="3" width="1" height="1"/>
	<rect fill="#FFFFFF" x="4" y="4" width="1" height="1"/>
	<rect fill="#FFFFFF" x="3" y="5" width="1" height="1"/>
</svg>