<svg xmlns="http://www.w3.org/2000/svg" viewBox="0 0 9 9" class="pixelicon-sandwich">
	<rect fill="#8FDE52" x="2" y="2" width="1" height="1"/>
	<rect fill="#FFB600" x="3" y="1" width="1" height="1"/>
	<rect fill="#FFB600" x="1" y="2" width="1" height="5"/>
	<rect fill="#FFB600" x="4" y="2" width="1" height="1"/>
	<rect fill="#FFB600" x="5" y="3" width="1" height="1"/>
	<rect fill="#FFB600" x="6" y="4" width="1" height="1"/>
	<rect fill="#FFB600" x="7" y="5" width="1" height="2"/>
	<rect fill="#FFB600" x="2" y="7" width="5" height="1"/>
	<path fill="#FFFCD9" d="M2,7H6V6H5V5H4V4H3V3H2z"/>
	<rect fill="#E64545" x="3" y="3" width="1" height="1"/>
	<rect fill="#E64545" x="4" y="4" width="1" height="1"/>
	<rect fill="#FFB3B3" x="5" y="5" width="1" height="1"/>
	<rect fill="#FFB3B3" x="6" y="6" width="1" height="1"/>
	<rect fill="#FFEA00" x="2" y="1" width="1" height="1"/>
	<rect fill="#FFEA00" x="3" y="2" width="1" height="1"/>
	<rect fill="#FFEA00" x="4" y="3" width="1" height="1"/>
	<rect fill="#FFEA00" x="5" y="4" width="1" height="1"/>
	<rect fill="#FFEA00" x="6" y="5" width="1" height="1"/>
</svg>