<svg xmlns="http://www.w3.org/2000/svg" viewBox="0 0 9 9" class="pixelicon-sandwich">
	<rect fill="#00AF3E" x="2" y="2" width="1" height="1"/>
	<rect fill="#FFB100" x="3" y="1" width="1" height="1"/>
	<rect fill="#FFB100" x="1" y="2" width="1" height="5"/>
	<rect fill="#FFB100" x="4" y="2" width="1" height="1"/>
	<rect fill="#FFB100" x="5" y="3" width="1" height="1"/>
	<rect fill="#FFB100" x="6" y="4" width="1" height="1"/>
	<rect fill="#FFB100" x="7" y="5" width="1" height="2"/>
	<rect fill="#FFB100" x="2" y="7" width="5" height="1"/>
	<path fill="#FFFBD4" d="M2,7H6V6H5V5H4V4H3V3H2z"/>
	<rect fill="#F92F3C" x="3" y="3" width="1" height="1"/>
	<rect fill="#F92F3C" x="4" y="4" width="1" height="1"/>
	<rect fill="#FFAEB0" x="5" y="5" width="1" height="1"/>
	<rect fill="#FFAEB0" x="6" y="6" width="1" height="1"/>
	<rect fill="#FFE800" x="2" y="1" width="1" height="1"/>
	<rect fill="#FFE800" x="3" y="2" width="1" height="1"/>
	<rect fill="#FFE800" x="4" y="3" width="1" height="1"/>
	<rect fill="#FFE800" x="5" y="4" width="1" height="1"/>
	<rect fill="#FFE800" x="6" y="5" width="1" height="1"/>
</svg>