<svg xmlns="http://www.w3.org/2000/svg" viewBox="0 0 9 9" class="pixelicon-santa">
	<rect fill="#FFE4C2" x="4" y="3" width="1" height="1"/>
	<rect fill="#343341" x="3" y="8" width="1" height="1"/>
	<rect fill="#FFE4C2" x="3" y="3" width="1" height="1"/>
	<polygon fill="#F92F3C" points="4,0 4,1 3,1 3,2 6,2 6,1 7,1 7,0 "/>
	<polygon fill="#F92F3C" points="5,5 5,6 4,6 4,5 3,5 3,7 6,7 6,6 7,6 7,5 "/>
	<rect fill="#EBEAF7" x="6" y="1" width="1" height="1"/>
	<rect fill="#EBEAF7" x="3" y="2" width="3" height="1"/>
	<polygon fill="#EBEAF7" points="6,4 3,4 3,5 4,5 4,6 5,6 5,5 6,5 "/>
	<rect fill="#EBEAF7" x="3" y="7" width="3" height="1"/>
	<rect fill="#FFE4C2" x="4" y="3" width="1" height="1"/>
	<rect fill="#FFE4C2" x="2" y="6" width="1" height="1"/>
	<rect fill="#FFE4C2" x="6" y="6" width="1" height="1"/>
	<rect fill="#343341" x="3" y="3" width="1" height="1"/>
	<rect fill="#343341" x="5" y="3" width="1" height="1"/>
	<rect fill="#343341" x="3" y="8" width="1" height="1"/>
	<rect fill="#343341" x="5" y="8" width="1" height="1"/>
</svg>