<svg xmlns="http://www.w3.org/2000/svg" viewBox="0 0 9 9" class="pixelicon-scissors">
	<polygon fill="#9F65FF" points="2,5 2,6 3,6 3,7 4,7 4,6 4,5"/>
	<rect fill="#9F65FF" x="1" y="6" width="1" height="1"/>
	<rect fill="#9F65FF" x="2" y="7" width="1" height="1"/>
	<rect fill="#FFAEB0" x="6" y="7" width="1" height="1"/>
	<rect fill="#FFAEB0" x="7" y="6" width="1" height="1"/>
	<polygon fill="#FFAEB0" points="7,6 7,5 4,5 4,6 5,6 5,7 6,7 6,6"/>
	<rect fill="#A1A0B4" x="5" y="3" width="1" height="1"/>
	<rect fill="#A1A0B4" x="6" y="2" width="1" height="1"/>
	<rect fill="#A1A0B4" x="7" y="1" width="1" height="1"/>
	<rect fill="#EBEAF7" x="4" y="4" width="1" height="1"/>
	<rect fill="#EBEAF7" x="1" y="1" width="1" height="1"/>
	<rect fill="#EBEAF7" x="2" y="2" width="1" height="1"/>
	<rect fill="#EBEAF7" x="3" y="3" width="1" height="1"/>
</svg>