<svg xmlns="http://www.w3.org/2000/svg" viewBox="0 0 9 9" class="pixelicon-sloth">
	<rect fill="#343340" x="0" y="4" width="2" height="1"/>
	<rect fill="#343340" x="3" y="4" width="2" height="1"/>
	<rect fill="#343340" x="2" y="5" width="1" height="1"/>
	<path fill="#FFE6C7" d="M1,3V4H2V5H3V4H4V3z"/>
	<rect fill="#FFE6C7" x="1" y="5" width="1" height="1"/>
	<rect fill="#FFE6C7" x="3" y="5" width="1" height="1"/>
	<path fill="#C98600" d="M4,4H5V5H4V6H1V8H2V9H7V8H8V7H9V3H8V5H6V1H5V3H4z"/>
	<rect fill="#C98600" x="1" y="2" width="3" height="1"/>
	<rect fill="#C98600" x="0" y="3" width="1" height="1"/>
	<rect fill="#C98600" x="0" y="5" width="1" height="1"/>
	<rect fill="#178039" x="0" y="0" width="1" height="1"/>
	<rect fill="#178039" x="3" y="0" width="1" height="1"/>
	<rect fill="#178039" x="1" y="1" width="1" height="1"/>
	<rect fill="#946200" x="1" y="0" width="1" height="1"/>
	<rect fill="#946200" x="2" y="1" width="3" height="1"/>
	<rect fill="#946200" x="6" y="1" width="1" height="1"/>
	<rect fill="#946200" x="7" y="2" width="2" height="1"/>
</svg>