<svg xmlns="http://www.w3.org/2000/svg" viewBox="0 0 9 9" class="pixelicon-sloth">
	<rect fill="#343341" x="0" y="4" width="2" height="1"/>
	<rect fill="#343341" x="3" y="4" width="2" height="1"/>
	<rect fill="#343341" x="2" y="5" width="1" height="1"/>
	<path fill="#FFE4C2" d="M1,3V4H2V5H3V4H4V3z"/>
	<rect fill="#FFE4C2" x="1" y="5" width="1" height="1"/>
	<rect fill="#FFE4C2" x="3" y="5" width="1" height="1"/>
	<path fill="#D38100" d="M4,4H5V5H4V6H1V8H2V9H7V8H8V7H9V3H8V5H6V1H5V3H4z"/>
	<rect fill="#D38100" x="1" y="2" width="3" height="1"/>
	<rect fill="#D38100" x="0" y="3" width="1" height="1"/>
	<rect fill="#D38100" x="0" y="5" width="1" height="1"/>
	<rect fill="#00812E" x="0" y="0" width="1" height="1"/>
	<rect fill="#00812E" x="3" y="0" width="1" height="1"/>
	<rect fill="#00812E" x="1" y="1" width="1" height="1"/>
	<rect fill="#9C5F00" x="1" y="0" width="1" height="1"/>
	<rect fill="#9C5F00" x="2" y="1" width="3" height="1"/>
	<rect fill="#9C5F00" x="6" y="1" width="1" height="1"/>
	<rect fill="#9C5F00" x="7" y="2" width="2" height="1"/>
</svg>