<svg xmlns="http://www.w3.org/2000/svg" viewBox="0 0 9 9" class="pixelicon-snowman">
	<polygon fill="#EBEAF7" points="3,3 3,2 2,2 2,4 4,4 4,3"/>
	<rect fill="#EBEAF7" x="4" y="2" width="1" height="1"/>
	<rect fill="#EBEAF7" x="6" y="2" width="1" height="2"/>
	<path fill="#EBEAF7" d="M5,5v1H3V5H2v3h1v1h3V8h1V5H5z M4,8V7h1v1H4z"/>
	<polygon fill="#343341" points="6,1 6,0 3,0 3,1 1,1 1,2 3,2 3,3 4,3 4,2 5,2 5,3 6,3 6,2 8,2 8,1"/>
	<rect fill="#FFB100" x="4" y="3" width="2" height="1"/>
	<polygon fill="#F92F3C" points="7,4 2,4 2,5 3,5 3,6 4,6 4,5 7,5"/>
	<rect fill="#4435FF" x="4" y="5" width="1" height="1"/>
	<rect fill="#4435FF" x="4" y="7" width="1" height="1"/>
	<rect fill="#9C5F00" x="1" y="5" width="1" height="1"/>
	<rect fill="#9C5F00" x="0" y="4" width="1" height="1"/>
	<rect fill="#9C5F00" x="7" y="5" width="1" height="1"/>
	<rect fill="#9C5F00" x="8" y="4" width="1" height="1"/>
</svg>