<svg xmlns="http://www.w3.org/2000/svg" viewBox="0 0 9 9" class="pixelicon-snowman">
	<path fill="#EBEAF7" d="M3,0V1H4V2H5V1H6V0z"/>
	<path fill="#EBEAF7" d="M7,8V5H6V4H7V1H6V2H5V3H4V2H3V1H2V4H3V5H2V8H3V9H6V8z M4,7H5V8H4z M5,5V6H4V5z"/>
	<rect fill="#343341" x="3" y="1" width="1" height="1"/>
	<rect fill="#343341" x="5" y="1" width="1" height="1"/>
	<rect fill="#FFB100" x="4" y="2" width="1" height="1"/>
	<rect fill="#C10015" x="4" y="5" width="1" height="1"/>
	<rect fill="#C10015" x="4" y="7" width="1" height="1"/>
	<rect fill="#9C5F00" x="0" y="4" width="1" height="1"/>
	<rect fill="#9C5F00" x="1" y="5" width="1" height="1"/>
	<rect fill="#9C5F00" x="8" y="4" width="1" height="1"/>
	<rect fill="#9C5F00" x="7" y="5" width="1" height="1"/>
</svg>