<svg xmlns="http://www.w3.org/2000/svg" viewBox="0 0 9 9" id="pixelicon-sound">
	<polygon fill="#FFE800" points="3,1 4,1 4,8 3,8 3,7 2,7 2,6 0,6 0,3 2,3 2,2 3,2"/>
	<polygon fill="#EBEAF7" points="6,0 7,0 7,1 6,1"/>
	<polygon fill="#EBEAF7" points="7,1 8,1 8,2 7,2"/>
	<polygon fill="#EBEAF7" points="5,2 6,2 6,3 5,3"/>
	<polygon fill="#EBEAF7" points="8,2 9,2 9,7 8,7"/>
	<polygon fill="#EBEAF7" points="6,3 7,3 7,6 6,6"/>
	<polygon fill="#EBEAF7" points="5,6 6,6 6,7 5,7"/>
	<polygon fill="#EBEAF7" points="7,7 8,7 8,8 7,8"/>
	<polygon fill="#EBEAF7" points="6,8 7,8 7,9 6,9"/>
</svg>