<svg xmlns="http://www.w3.org/2000/svg" viewBox="0 0 9 9" class="pixelicon-spooderman">
	<polygon fill="#F92F3C" points="8,7 8,6 7,6 7,4 6,4 6,5 5,5 5,4 6,4 6,3 3,3 3,4 4,4 4,5 3,5 3,6 5,6 5,7 4,7 4,8 5,8 5,9 6,9 6,8 7,8 7,9 8,9 8,8 9,8 9,7"/>
	<rect fill="#F92F3C" x="2" y="4" width="1" height="1"/>
	<rect fill="#EBEAF7" x="3" y="4" width="1" height="1"/>
	<rect fill="#EBEAF7" x="5" y="4" width="1" height="1"/>
	<rect fill="#4435FF" x="4" y="8" width="1" height="1"/>
	<rect fill="#4435FF" x="8" y="8" width="1" height="1"/>
	<rect fill="#343341" x="6" y="8" width="1" height="1"/>
</svg>