<svg xmlns="http://www.w3.org/2000/svg" viewBox="0 0 9 9" class="pixelicon-squirrel">
	<path fill="#D38100" d="M3,6V7H1V8H5V7H6V5H5V3H4V1H1V4H2V5H1V6z M3,2V3H2V2z M3,5H4V6H3z"/>
	<rect fill="#343341" x="2" y="2" width="1" height="1"/>
	<rect fill="#B67100" x="3" y="0" width="1" height="1"/>
	<path fill="#B67100" d="M7,3H9V1H8V0H7V1H6V2H5V5H6V7H7z"/>
	<rect fill="#B67100" x="0" y="2" width="1" height="1"/>
	<rect fill="#B67100" x="3" y="5" width="1" height="1"/>
	<rect fill="#B67100" x="2" y="6" width="1" height="1"/>
	<rect fill="#9C5F00" x="7" y="3" width="2" height="1"/>
</svg>