<svg xmlns="http://www.w3.org/2000/svg" viewBox="0 0 9 9" class="pixelicon-sunglasses">
	<polygon fill="#343341" points="2,4 2,3 0,3 0,5 1,5 1,4"/>
	<polygon fill="#343341" points="7,4 7,3 3,3 3,4 2,4 2,5 1,5 1,6 3,6 3,5 4,5 4,4 5,4 5,5 6,5 6,4"/>
	<polygon fill="#343341" points="8,3 8,4 7,4 7,5 6,5 6,6 8,6 8,5 9,5 9,3"/>
	<rect fill="#EBEAF7" x="2" y="3" width="1" height="1"/>
	<rect fill="#EBEAF7" x="1" y="4" width="1" height="1"/>
	<rect fill="#EBEAF7" x="7" y="3" width="1" height="1"/>
	<rect fill="#EBEAF7" x="6" y="4" width="1" height="1"/>
</svg>