<svg xmlns="http://www.w3.org/2000/svg" viewBox="0 0 9 9" class="pixelicon-surprised-pikachu">
	<path fill="#FFE800" d="M7,3H4V2H3v2h1v1H3v1H2v1h1v2h5V5H7v1H6V5H5V4h1v1h1V3z M5,7H4V6h1V7z"/>
	<rect fill="#FFE800" x="7" y="2" width="1" height="1"/>
	<rect fill="#FFE800" x="2" y="4" width="1" height="1"/>
	<rect fill="#F92F3C" x="2" y="5" width="1" height="1"/>
	<rect fill="#F92F3C" x="6" y="5" width="1" height="1"/>
	<rect fill="#F92F3C" x="4" y="6" width="1" height="1"/>
	<rect fill="#343341" x="2" y="1" width="1" height="1"/>
	<rect fill="#343341" x="8" y="1" width="1" height="1"/>
	<rect fill="#343341" x="3" y="4" width="1" height="1"/>
	<rect fill="#343341" x="5" y="4" width="1" height="1"/>
</svg>