<svg xmlns="http://www.w3.org/2000/svg" viewBox="0 0 9 9" class="pixelicon-take-my-money">
	<polygon fill="#FFB100" points="3,1 3,2 0,2 0,4 1,4 1,5 2,5 2,3 4,3 4,1"/>
	<polygon fill="#FFE4C2" points="2,3 2,5 1,5 1,6 4,6 4,3"/>
	<rect fill="#FFE4C2" x="7" y="5" width="1" height="1"/>
	<rect fill="#EBEAF7" x="2" y="6" width="1" height="3"/>
	<polygon fill="#C10015" points="1,6 1,7 0,7 0,9 2,9 2,6"/>
	<polygon fill="#C10015" points="4,7 4,6 3,6 3,9 4,9 4,8 6,8 6,7"/>
	<rect fill="#C10015" x="6" y="6" width="1" height="1"/>
	<rect fill="#00812E" x="6" y="4" width="1" height="1"/>
	<rect fill="#00812E" x="7" y="6" width="1" height="1"/>
</svg>