<svg xmlns="http://www.w3.org/2000/svg" viewBox="0 0 9 9" class="pixelicon-tang-yuan">
	<rect fill="#C10015" x="3" y="0" width="3" height="1"/>
	<rect fill="#C10015" x="2" y="1" width="1" height="1"/>
	<rect fill="#C10015" x="6" y="1" width="3" height="1"/>
	<rect fill="#C10015" x="3" y="2" width="3" height="1"/>
	<path fill="#C10015" d="M6,9V8H7V6H6V7H2V6H1V8H2V9z"/>
	<rect fill="#A60012" x="2" y="4" width="4" height="1"/>
	<rect fill="#A60012" x="1" y="5" width="1" height="1"/>
	<rect fill="#A60012" x="6" y="5" width="1" height="1"/>
	<rect fill="#FFAEB0" x="3" y="1" width="1" height="1"/>
	<rect fill="#FFAEB0" x="5" y="1" width="1" height="1"/>
	<rect fill="#FFAEB0" x="2" y="5" width="1" height="1"/>
	<rect fill="#FFAEB0" x="4" y="5" width="1" height="1"/>
	<rect fill="#FFAEB0" x="3" y="6" width="1" height="1"/>
	<rect fill="#FFAEB0" x="5" y="6" width="1" height="1"/>
	<rect fill="#FFFFFF" x="4" y="1" width="1" height="1"/>
	<rect fill="#FFFFFF" x="3" y="5" width="1" height="1"/>
	<rect fill="#FFFFFF" x="5" y="5" width="1" height="1"/>
	<rect fill="#FFFFFF" x="2" y="6" width="1" height="1"/>
	<rect fill="#FFFFFF" x="4" y="6" width="1" height="1"/>
</svg>