<svg xmlns="http://www.w3.org/2000/svg" viewBox="0 0 9 9" class="pixelicon-this-is-fine">
	<polygon fill="#FFB100" points="4,1 4,0 3,0 3,1 2,1 2,3 3,3 3,2 5,2 5,1"/>
	<polygon fill="#FFB100" points="7,1 6,1 6,2 5,2 5,3 6,3 6,5 8,5 8,3 7,3"/>
	<rect fill="#FFB100" x="8" y="2" width="1" height="1"/>
	<polygon fill="#FFB100" points="1,2 0,2 0,8 1,8 1,9 2,9 2,7 1,7 1,5 2,5 2,3 1,3"/>
	<polygon fill="#FFB100" points="7,7 6,7 6,9 7,9 7,8 8,8 8,6 7,6"/>
	<polygon fill="#B67100" points="5,3 5,2 3,2 3,3 2,3 2,4 6,4 6,3"/>
	<path fill="#FFE800" d="M6,5v1H5V5H6V4H2v5h4V7h1V5H6z M3,6V5h1v1H3z"/>
	<rect fill="#343341" x="1" y="5" width="1" height="2"/>
	<rect fill="#343341" x="3" y="5" width="1" height="1"/>
	<rect fill="#343341" x="5" y="5" width="1" height="1"/>
	<rect fill="#343341" x="7" y="5" width="1" height="1"/>
</svg>