<svg xmlns="http://www.w3.org/2000/svg" viewBox="0 0 9 9" class="pixelicon-tiger-walk">
	<rect fill="#FFB100" x="0" y="1" width="1" height="1"/>
	<rect fill="#FFB100" x="4" y="1" width="1" height="1"/>
	<path fill="#FFB100" d="M5,3H4V2H3V3H2V2H1V3H0V5H1V6H3V7H4V5H5z M1,4H2V5H1z M4,5H3V4H4z"/>
	<rect fill="#FFB100" x="8" y="3" width="1" height="1"/>
	<rect fill="#FFB100" x="6" y="4" width="1" height="2"/>
	<rect fill="#FFB100" x="5" y="6" width="1" height="1"/>
	<rect fill="#FFB100" x="7" y="6" width="1" height="2"/>
	<rect fill="#FFB100" x="2" y="7" width="1" height="1"/>
	<rect fill="#FFB100" x="4" y="7" width="1" height="1"/>
	<rect fill="#EBEAF7" x="0" y="5" width="1" height="1"/>
	<rect fill="#EBEAF7" x="4" y="5" width="1" height="1"/>
	<rect fill="#343341" x="0" y="2" width="1" height="1"/>
	<rect fill="#343341" x="2" y="2" width="1" height="1"/>
	<rect fill="#343341" x="4" y="2" width="1" height="1"/>
	<rect fill="#343341" x="1" y="4" width="1" height="1"/>
	<rect fill="#343341" x="3" y="4" width="1" height="1"/>
	<rect fill="#343341" x="5" y="4" width="1" height="2"/>
	<rect fill="#343341" x="7" y="4" width="1" height="2"/>
	<rect fill="#343341" x="2" y="6" width="1" height="1"/>
	<rect fill="#343341" x="4" y="6" width="1" height="1"/>
	<rect fill="#343341" x="6" y="6" width="1" height="1"/>
</svg>