<svg xmlns="http://www.w3.org/2000/svg" viewBox="0 0 9 9" class="pixelicon-tiger">
	<rect fill="#343341" x="3" y="3" width="1" height="1"/>
	<rect fill="#343341" x="5" y="3" width="1" height="1"/>
	<rect fill="#343341" x="2" y="5" width="1" height="1"/>
	<rect fill="#343341" x="6" y="5" width="1" height="1"/>
	<rect fill="#343341" x="4" y="7" width="1" height="1"/>
	<path fill="#FFB100" d="M0,4H1V3H2V2H0z"/>
	<path fill="#FFB100" d="M7,2V3H8V4H9V2z"/>
	<path fill="#FFB100" d="M3,3H2V4H1V6H2V8H3V7H6V8H7V6H8V4H7V3H6V4H5V3H4V4H3z M2,5H3V6H2z M6,6V5H7V6z"/>
	<rect fill="#EBEAF7" x="1" y="3" width="1" height="1"/>
	<rect fill="#EBEAF7" x="7" y="3" width="1" height="1"/>
	<rect fill="#EBEAF7" x="1" y="6" width="1" height="2"/>
	<rect fill="#EBEAF7" x="7" y="6" width="1" height="2"/>
	<rect fill="#EBEAF7" x="3" y="7" width="1" height="1"/>
	<rect fill="#EBEAF7" x="5" y="7" width="1" height="1"/>
</svg>