<svg xmlns="http://www.w3.org/2000/svg" viewBox="0 0 9 9" class="pixelicon-tiger">
	<rect fill="#343341" x="3" y="2" width="1" height="1"/>
	<rect fill="#343341" x="5" y="2" width="1" height="1"/>
	<rect fill="#343341" x="2" y="4" width="1" height="1"/>
	<rect fill="#343341" x="6" y="4" width="1" height="1"/>
	<rect fill="#343341" x="4" y="6" width="1" height="1"/>
	<path fill="#FFB100" d="M0,6H1V7H2V8H3V6H6V8H7V7H8V6H9V4H8V1H7V2H6V3H5V2H4V3H3V2H2V1H1V4H0z M3,4V5H2V4z M7,4V5H6V4z"/>
	<path fill="#E5E3D1" d="M3,8H6V6H5V7H4V6H3z"/>
</svg>