<svg xmlns="http://www.w3.org/2000/svg" viewBox="0 0 9 9" class="pixelicon-tiktok">
	<polygon fill="#48F4EF" points="4,1 5,1 5,7 3,7 3,6 4,6"/>
	<polygon fill="#48F4EF" points="2,4 3,4 3,5 2,5"/>
	<polygon fill="#48F4EF" points="1,5 2,5 2,7 1,7"/>
	<polygon fill="#48F4EF" points="2,7 3,7 3,8 2,8"/>
	<polygon fill="#343341" points="5,1 6,1 6,2 7,2 7,3 6,3 6,7 5,7"/>
	<polygon fill="#343341" points="7,3 8,3 8,4 7,4"/>
	<polygon fill="#343341" points="3,4 4,4 4,5 3,5"/>
	<polygon fill="#343341" points="2,5 3,5 3,7 2,7"/>
	<polygon fill="#343341" points="3,7 5,7 5,8 3,8"/>
	<polygon fill="#FF7BAC" points="6,3 7,3 7,4 8,4 8,5 7,5 7,7 6,7"/>
	<polygon fill="#FF7BAC" points="5,7 6,7 6,8 5,8"/>
	<polygon fill="#FF7BAC" points="3,8 5,8 5,9 3,9"/>
</svg>