<svg xmlns="http://www.w3.org/2000/svg" viewBox="0 0 9 9" class="pixelicon-tiktok">
	<polygon fill="#48F4EF" points="4,1 4,6 3,6 3,7 5,7 5,1"/>
	<rect fill="#48F4EF" x="2" y="4" width="1" height="1"/>
	<polygon fill="#48F4EF" points="2,5 1,5 1,7 2,7"/>
	<rect fill="#48F4EF" x="2" y="7" width="1" height="1"/>
	<polygon fill="#FF6A9E" points="6,2 6,1 5,1 5,7 6,7 6,3 7,3 7,2"/>
	<rect fill="#FF6A9E" x="7" y="3" width="1" height="1"/>
	<rect fill="#FF6A9E" x="3" y="4" width="1" height="1"/>
	<polygon fill="#FF6A9E" points="3,5 2,5 2,7 3,7"/>
	<polygon fill="#FF6A9E" points="3,7 3,8 5,8 5,7"/>
</svg>