<svg xmlns="http://www.w3.org/2000/svg" viewBox="0 0 9 9" class="pixelicon-unicorn">
	<rect fill="#EBEAF7" x="0" y="0" width="1" height="1"/>
	<rect fill="#EBEAF7" x="1" y="1" width="1" height="1"/>
	<path fill="#EBEAF7" d="M6,4V5H5V4H4V2H2V3H1V5H3V7H4V8H5V7H6V8H7V4z M2,3H3V4H2z"/>
	<rect fill="#EBEAF7" x="2" y="7" width="1" height="1"/>
	<rect fill="#FFAEB0" x="2" y="1" width="2" height="1"/>
	<rect fill="#FFAEB0" x="7" y="4" width="1" height="1"/>
	<rect fill="#FFAEB0" x="2" y="8" width="1" height="1"/>
	<rect fill="#FFAEB0" x="4" y="8" width="1" height="1"/>
	<rect fill="#FFAEB0" x="6" y="8" width="1" height="1"/>
	<rect fill="#89CDFF" x="4" y="2" width="1" height="2"/>
	<rect fill="#89CDFF" x="8" y="5" width="1" height="1"/>
	<rect fill="#FFE800" x="5" y="3" width="1" height="2"/>
	<rect fill="#FFE800" x="8" y="6" width="1" height="1"/>
	<rect fill="#343341" x="2" y="3" width="1" height="1"/>
</svg>