<svg xmlns="http://www.w3.org/2000/svg" viewBox="0 0 9 9" class="pixelicon-watermelon">
	<path fill="#F92F3C" d="M7,5V3H6V1H5V0H4v1H3v2H2v2H1v1h1v1h5V6h1V5H7 M6,5H5V4h1V5 M4,2h1v1H4V2 M3,6V5h1v1H3"/>
	<rect fill="#00AF3E" x="1" y="6" width="1" height="1"/>
	<rect fill="#00AF3E" x="2" y="7" width="5" height="1"/>
	<rect fill="#00AF3E" x="7" y="6" width="1" height="1"/>
	<rect fill="#343341" x="4" y="2" width="1" height="1"/>
	<rect fill="#343341" x="5" y="4" width="1" height="1"/>
	<rect fill="#343341" x="3" y="5" width="1" height="1"/>
</svg>