<svg xmlns="http://www.w3.org/2000/svg" viewBox="0 0 9 9" class="pixelicon-watermelon">
	<rect fill="#343341" x="3" y="5" width="1" height="1"/>
	<rect fill="#343341" x="5" y="4" width="1" height="1"/>
	<polygon fill="#00AF3E" points="2,7 2,8 7,8 7,7"/>
	<rect fill="#00AF3E" x="1" y="6" width="1" height="1"/>
	<rect fill="#00AF3E" x="7" y="6" width="1" height="1"/>
	<rect fill="#343341" x="4" y="2" width="1" height="1"/>
	<path fill="#F92F3C" d="M7,5V3H6V1H5V0H4v1H3v2H2v2H1v1h1v1h5V6h1V5H7z M6,5H5V4h1V5z M4,2h1v1H4V2z M3,6V5h1v1H3z"/>
</svg>