<svg xmlns="http://www.w3.org/2000/svg" viewBox="0 0 9 9" class="pixelicon-wreath">
	<rect fill="#F92F3C" x="2" y="5" width="1" height="1"/>
	<rect fill="#F92F3C" x="6" y="6" width="1" height="1"/>
	<rect fill="#F92F3C" x="7" y="3" width="1" height="1"/>
	<rect fill="#F92F3C" x="3" y="1" width="1" height="1"/>
	<rect fill="#F92F3C" x="5" y="1" width="1" height="1"/>
	<rect fill="#C10015" x="3" y="2" width="1" height="1"/>
	<rect fill="#C10015" x="5" y="2" width="1" height="1"/>
	<rect fill="#C10015" x="4" y="1" width="1" height="1"/>
	<rect fill="#FFE800" x="1" y="3" width="1" height="1"/>
	<rect fill="#FFE800" x="7" y="5" width="1" height="1"/>
	<rect fill="#FFE800" x="3" y="7" width="1" height="1"/>
	<polygon fill="#00AF3E" points="3,5 3,4 4,4 4,3 3,3 3,2 2,2 2,4 1,4 1,6 2,6 2,5"/>
	<polygon fill="#00AF3E" points="7,4 7,2 6,2 6,3 5,3 5,4 6,4 6,5 5,5 5,6 4,6 4,5 3,5 3,6 2,6 2,7 4,7 4,8 6,8 6,6 7,6 7,5 8,5 8,4"/>
	<rect fill="#00AF3E" x="4" y="2" width="1" height="1"/>
</svg>