<svg xmlns="http://www.w3.org/2000/svg" viewBox="0 0 9 9" class="pixelicon-x">
	<polygon fill="#343341" points="3,2 3,1 1,1 1,3 2,3 2,2"/>
	<rect fill="#343341" x="3" y="2" width="1" height="1"/>
	<polygon fill="#343341" points="6,3 4,3 4,4 5,4 5,5 6,5"/>
	<rect fill="#343341" x="6" y="5" width="1" height="1"/>
	<polygon fill="#343341" points="6,7 6,8 8,8 8,6 7,6 7,7"/>
	<rect fill="#343341" x="5" y="6" width="1" height="1"/>
	<polygon fill="#343341" points="4,5 4,4 3,4 3,6 5,6 5,5"/>
	<rect fill="#343341" x="2" y="3" width="1" height="1"/>
	<rect fill="#343341" x="7" y="1" width="1" height="1"/>
	<rect fill="#343341" x="6" y="2" width="1" height="1"/>
	<rect fill="#343341" x="2" y="6" width="1" height="1"/>
	<rect fill="#343341" x="1" y="7" width="1" height="1"/>
</svg>