<svg xmlns="http://www.w3.org/2000/svg" viewBox="0 0 9 9" class="pixelicon-x">
	<rect fill="#6F6D81" x="5" y="3" width="1" height="1"/>
	<rect fill="#6F6D81" x="3" y="5" width="1" height="1"/>
	<rect fill="#343341" x="6" y="2" width="1" height="1"/>
	<rect fill="#343341" x="7" y="1" width="1" height="1"/>
	<rect fill="#343341" x="1" y="7" width="1" height="1"/>
	<rect fill="#343341" x="2" y="6" width="1" height="1"/>
	<polygon fill="#343341" points="3,2 3,1 0,1 0,2 1,2 1,3 2,3 2,2"/>
	<rect fill="#343341" x="3" y="2" width="1" height="1"/>
	<rect fill="#343341" x="2" y="3" width="1" height="1"/>
	<rect fill="#343341" x="4" y="3" width="1" height="1"/>
	<rect fill="#343341" x="3" y="4" width="1" height="1"/>
	<rect fill="#343341" x="5" y="4" width="1" height="1"/>
	<rect fill="#343341" x="4" y="5" width="1" height="1"/>
	<rect fill="#343341" x="6" y="5" width="1" height="1"/>
	<rect fill="#343341" x="5" y="6" width="1" height="1"/>
	<polygon fill="#343341" points="8,7 8,6 7,6 7,7 6,7 6,8 9,8 9,7"/>
</svg>