<svg xmlns="http://www.w3.org/2000/svg" viewBox="0 0 9 9" class="pixelicon-xmas-bell">
	<polygon fill="#FFE800" points="6,6 6,4 5,4 5,3 4,3 4,4 3,4 3,6 2,6 2,7 7,7 7,6"/>
	<rect fill="#FFB100" x="4" y="7" width="1" height="1"/>
	<rect fill="#F92F3C" x="3" y="2" width="1" height="1"/>
	<rect fill="#F92F3C" x="5" y="2" width="1" height="1"/>
	<rect fill="#C10015" x="4" y="2" width="1" height="1"/>
	<rect fill="#C10015" x="3" y="3" width="1" height="1"/>
	<rect fill="#C10015" x="5" y="3" width="1" height="1"/>
	<rect fill="#00812E" x="2" y="3" width="1" height="1"/>
	<rect fill="#00812E" x="6" y="3" width="1" height="1"/>
	<rect fill="#00AF3E" x="3" y="1" width="1" height="1"/>
	<rect fill="#00AF3E" x="5" y="1" width="1" height="1"/>
	<rect fill="#00AF3E" x="2" y="2" width="1" height="1"/>
	<rect fill="#00AF3E" x="6" y="2" width="1" height="1"/>
</svg>